<svg xmlns="http://www.w3.org/2000/svg" viewBox="0 0 595.28 141.08"><defs><style>.cls-1{fill:#0c1f39;}.cls-2{fill:#cf2c3b;}.cls-3{fill:#7a1633;}.cls-4{fill:#521e4e;}.cls-5{fill:#ed5535;}</style></defs><title>Asset 3</title><g id="Layer_2" data-name="Layer 2"><g id="Layer_2-2" data-name="Layer 2"><polygon class="cls-1" points="423.94 56.34 504.87 141.08 512.79 141.08 423.94 56.34"/><polygon class="cls-2" points="0 78.98 202.66 0 348.7 141.08 0 141.08 0 78.98"/><polygon class="cls-3" points="202.66 0 253.75 49.36 348.7 78.3 202.66 0"/><polygon class="cls-1" points="253.75 49.36 349.72 141.08 363.77 141.08 270.32 58.89 348.7 78.3 253.75 49.36"/><polygon class="cls-4" points="270.32 58.89 363.77 141.08 504.96 141.08 476.02 111.32 380.17 86.89 270.32 58.89"/><polygon class="cls-1" points="471.57 106.25 380.17 86.89 476.71 112.03 471.57 106.25"/><polygon class="cls-5" points="425.54 56.34 595.28 95.22 595.28 141.08 513.07 141.08 425.54 56.34"/><polygon class="cls-2" points="380.17 86.89 424.96 56.34 470.92 105.7 380.17 86.89"/></g></g></svg>