<?xml version="1.0" encoding="utf-8"?>
<!-- Generator: Adobe Illustrator 23.0.2, SVG Export Plug-In . SVG Version: 6.00 Build 0)  -->
<svg version="1.1" xmlns="http://www.w3.org/2000/svg" xmlns:xlink="http://www.w3.org/1999/xlink" x="0px" y="0px"
	 viewBox="0 0 500 500" style="enable-background:new 0 0 500 500;" xml:space="preserve">
<style type="text/css">
	.st0{fill-rule:evenodd;clip-rule:evenodd;fill:#FFFFFF;}
	.st1{clip-path:url(#SVGID_2_);}
	.st2{fill-rule:evenodd;clip-rule:evenodd;fill:#FEC49C;}
	.st3{fill-rule:evenodd;clip-rule:evenodd;fill:#D2A588;}
	.st4{fill-rule:evenodd;clip-rule:evenodd;fill:#353634;}
	.st5{fill-rule:evenodd;clip-rule:evenodd;fill:#C4495E;}
	.st6{fill-rule:evenodd;clip-rule:evenodd;fill:#A64358;}
</style>
<g>
	<g id="Layer_2">
	</g>
</g>
<g id="OBJECTS">
	<g>
		<circle class="st0" cx="250.7" cy="248.6" r="235"/>
		<g>
			<defs>
				<circle id="SVGID_1_" cx="250.7" cy="248.6" r="235"/>
			</defs>
			<clipPath id="SVGID_2_">
				<use xlink:href="#SVGID_1_"  style="overflow:visible;"/>
			</clipPath>
			<g class="st1">
				<g>
					<path class="st2" d="M299,349.18c-2.09,9.36-4.4,30.37-0.72,40.27c1.37,3.68,72.51,30.97,80.95,34.34
						c17.64,7.04,33.17,14.29,39.79,21.51c7.5,8.18,13.13,22.46,13.13,41.5c-143.91,0-219.24,0-362.9,0
						c0-19.03,5.63-33.32,13.13-41.5c6.63-7.22,22.16-14.47,39.79-21.51c8.44-3.37,79.58-30.65,80.95-34.34
						c3.68-9.9,1.36-30.91-0.72-40.27C260.12,318.69,240.86,318.46,299,349.18z"/>
					<path class="st3" d="M317.05,398.85c0,0-19.75,28.06-35.18,29.76c-23.13,2.54-28.58-5.19-43.87-20.32
						c-12.76-12.63-28.2-29.41-33.18-41.07c0,0-2.67-22.95-4.37-26.85c-1.7-3.9,42.92-20.47,42.92-20.47l45.11-0.85L299,349.18
						c0,0-5.68,28.25-0.72,40.27L317.05,398.85z"/>
					<g>
						<path class="st2" d="M174.29,288.66c0,0-13.71,4.21-23.58-7.37c-9.87-11.58-27.88-65.53,14.2-58.02L174.29,288.66z"/>
						<path class="st2" d="M324.87,288.66c0,0,13.71,4.21,23.58-7.37c9.88-11.58,27.88-65.53-14.2-58.02L324.87,288.66z"/>
						<path class="st2" d="M297.23,358.43c-41.36,44.52-53.78,44.52-95.14,0c-27.49-29.59-32.24-60.59-34.11-96.88
							c-1.7-32.92-10.79-78.2,7.25-99.76c28.32-33.84,120.54-33.84,148.86,0c18.04,21.56,8.95,66.84,7.25,99.76
							C329.46,297.84,324.72,328.84,297.23,358.43z"/>
					</g>
				</g>
				<path class="st4" d="M160.63,257.07h7.05c0,0-11.75-88.86,22.15-107.11c33.9-18.25,135.07,12.27,144.23,37.58l-2.44,69.35h7.53
					l8.49-33.69c0,0,6.59-56.02,4.96-61.32c-1.63-5.3-1.22-46.49-92.98-69.33c0,0-70.96-15.09-96.24,36.7c0,0-3.56,9.33-2.34,21.52
					c0,0-16.41,2.13-15.19,30.68C147.07,210.01,160.63,257.07,160.63,257.07z"/>
				<path class="st5" d="M313.97,397.3c21.8,9.5,59.27,24.09,65.26,26.48c17.64,7.04,33.17,14.29,39.79,21.51
					c7.5,8.18,13.13,22.46,13.13,41.5c-143.91,0-219.24,0-362.9,0c0-19.03,5.63-33.32,13.13-41.5c6.63-7.22,22.16-14.47,39.79-21.51
					c6.03-2.41,44.07-17.02,65.79-26.51c11.12,26.08,35.18,44.14,62.99,44.14C278.77,441.41,302.81,423.28,313.97,397.3z"/>
				<path class="st6" d="M320.2,399.98c-11.39,29.01-38.84,48.17-69.24,48.17c-30.46,0-57.91-19.08-69.26-48.19l6.27-2.69
					c12.53,24.69,33.46,43.94,63.34,43.94c29.88,0,51.67-19.43,62.66-43.91L320.2,399.98z"/>
			</g>
		</g>
	</g>
</g>
<g id="DESIGNED_BY_FREEPIK">
</g>
</svg>
