<?xml version="1.0" encoding="utf-8"?>
<!-- Generator: Adobe Illustrator 23.0.2, SVG Export Plug-In . SVG Version: 6.00 Build 0)  -->
<svg version="1.1" xmlns="http://www.w3.org/2000/svg" xmlns:xlink="http://www.w3.org/1999/xlink" x="0px" y="0px"
	 viewBox="0 0 500 500" style="enable-background:new 0 0 500 500;" xml:space="preserve">
<style type="text/css">
	.st0{fill:#E0E0E0;}
	.st1{fill:#263238;}
</style>
<g id="Background_Complete">
</g>
<g id="Background_Simple">
</g>
<g id="Floor">
</g>
<g id="Documents">
	<g id="mainDocs">
		<g>
			<rect x="218.44" y="211.36" class="st0" width="55.4" height="81.49"/>
		</g>
		<g>
			<g>
				<path class="st1" d="M252.62,236.16c0,0.15-2.14,0.28-4.79,0.28c-2.64,0-4.79-0.12-4.79-0.28c0-0.15,2.14-0.28,4.79-0.28
					C250.48,235.89,252.62,236.01,252.62,236.16z"/>
			</g>
		</g>
		<g>
			<g>
				<g>
					<path class="st1" d="M237.8,237.38c0,0.15-3.01,0.28-6.72,0.28c-3.71,0-6.72-0.12-6.72-0.28c0-0.15,3.01-0.28,6.72-0.28
						C234.79,237.1,237.8,237.23,237.8,237.38z"/>
				</g>
			</g>
			<g>
				<g>
					<path class="st1" d="M237.8,240.98c0,0.15-3.01,0.28-6.72,0.28c-3.71,0-6.72-0.12-6.72-0.28c0-0.15,3.01-0.28,6.72-0.28
						C234.79,240.7,237.8,240.83,237.8,240.98z"/>
				</g>
			</g>
			<g>
				<g>
					<path class="st1" d="M237.8,244.58c0,0.15-3.01,0.28-6.72,0.28c-3.71,0-6.72-0.12-6.72-0.28c0-0.15,3.01-0.28,6.72-0.28
						C234.79,244.3,237.8,244.43,237.8,244.58z"/>
				</g>
			</g>
			<g>
				<g>
					<path class="st1" d="M237.8,248.18c0,0.15-3.01,0.28-6.72,0.28c-3.71,0-6.72-0.12-6.72-0.28c0-0.15,3.01-0.28,6.72-0.28
						C234.79,247.9,237.8,248.03,237.8,248.18z"/>
				</g>
			</g>
			<g>
				<g>
					<path class="st1" d="M237.8,251.78c0,0.15-3.01,0.28-6.72,0.28c-3.71,0-6.72-0.12-6.72-0.28c0-0.15,3.01-0.28,6.72-0.28
						C234.79,251.5,237.8,251.63,237.8,251.78z"/>
				</g>
			</g>
		</g>
		<g>
			<g>
				<g>
					<path class="st1" d="M237.8,258.27c0,0.15-3.01,0.28-6.72,0.28c-3.71,0-6.72-0.12-6.72-0.28s3.01-0.28,6.72-0.28
						C234.79,257.99,237.8,258.11,237.8,258.27z"/>
				</g>
			</g>
			<g>
				<g>
					<path class="st1" d="M237.8,261.87c0,0.15-3.01,0.28-6.72,0.28c-3.71,0-6.72-0.12-6.72-0.28c0-0.15,3.01-0.28,6.72-0.28
						C234.79,261.59,237.8,261.71,237.8,261.87z"/>
				</g>
			</g>
			<g>
				<g>
					<path class="st1" d="M237.8,265.47c0,0.15-3.01,0.28-6.72,0.28c-3.71,0-6.72-0.12-6.72-0.28c0-0.15,3.01-0.28,6.72-0.28
						C234.79,265.19,237.8,265.32,237.8,265.47z"/>
				</g>
			</g>
			<g>
				<g>
					<path class="st1" d="M231.83,269.07c0,0.15-1.67,0.28-3.74,0.28c-2.06,0-3.74-0.12-3.74-0.28s1.67-0.28,3.74-0.28
						C230.16,268.79,231.83,268.92,231.83,269.07z"/>
				</g>
			</g>
		</g>
		<g>
			<g>
				<path class="st1" d="M264.64,242.01c0,0.15-4.83,0.28-10.79,0.28c-5.96,0-10.8-0.12-10.8-0.28c0-0.15,4.83-0.28,10.8-0.28
					C259.81,241.73,264.64,241.85,264.64,242.01z"/>
			</g>
		</g>
		<g>
			<g>
				<path class="st1" d="M264.95,245.52c0,0.15-4.83,0.28-10.79,0.28c-5.96,0-10.8-0.12-10.8-0.28c0-0.15,4.83-0.28,10.8-0.28
					C260.11,245.24,264.95,245.37,264.95,245.52z"/>
			</g>
		</g>
		<g>
			<g>
				<path class="st1" d="M252.62,253.54c0,0.15-2.14,0.28-4.79,0.28c-2.64,0-4.79-0.12-4.79-0.28s2.14-0.28,4.79-0.28
					C250.48,253.26,252.62,253.39,252.62,253.54z"/>
			</g>
		</g>
		<g>
			<g>
				<path class="st1" d="M264.64,259.39c0,0.15-4.83,0.28-10.79,0.28c-5.96,0-10.8-0.12-10.8-0.28s4.83-0.28,10.8-0.28
					C259.81,259.11,264.64,259.23,264.64,259.39z"/>
			</g>
		</g>
		<g>
			<g>
				<path class="st1" d="M264.95,262.9c0,0.15-4.83,0.28-10.79,0.28c-5.96,0-10.8-0.12-10.8-0.28c0-0.15,4.83-0.28,10.8-0.28
					C260.11,262.62,264.95,262.74,264.95,262.9z"/>
			</g>
		</g>
		<g>
			<g>
				<path class="st1" d="M252.62,271.6c0,0.15-2.14,0.28-4.79,0.28c-2.64,0-4.79-0.12-4.79-0.28c0-0.15,2.14-0.28,4.79-0.28
					C250.48,271.32,252.62,271.44,252.62,271.6z"/>
			</g>
		</g>
		<g>
			<g>
				<path class="st1" d="M264.64,277.44c0,0.15-4.83,0.28-10.79,0.28c-5.96,0-10.8-0.12-10.8-0.28c0-0.15,4.83-0.28,10.8-0.28
					C259.81,277.16,264.64,277.29,264.64,277.44z"/>
			</g>
		</g>
		<g>
			<g>
				<path class="st1" d="M264.95,280.95c0,0.15-4.83,0.28-10.79,0.28c-5.96,0-10.8-0.12-10.8-0.28c0-0.15,4.83-0.28,10.8-0.28
					C260.11,280.68,264.95,280.8,264.95,280.95z"/>
			</g>
		</g>
		<g>
			<g>
				<path class="st1" d="M238.21,232.04c-0.02-0.02-0.03-0.4-0.05-1.1c-0.02-0.76-0.04-1.76-0.06-2.99
					c-0.03-2.61-0.07-6.21-0.12-10.49l0.23,0.24c-4.16,0.01-9.04,0.02-14.24,0.04c-0.06,0.06,0.51-0.52,0.27-0.28v0v0.01v0.02v0.03
					v0.06v0.12v0.25l0,0.5l0,0.99c0,0.66,0,1.31,0,1.95c0,1.29,0,2.54-0.01,3.77c-0.01,2.44-0.02,4.75-0.03,6.88l-0.23-0.24
					c4.19,0.05,7.7,0.09,10.25,0.12c1.2,0.03,2.18,0.05,2.92,0.06C237.82,232,238.19,232.02,238.21,232.04
					c0.02,0.02-0.32,0.04-0.98,0.05c-0.73,0.02-1.69,0.04-2.87,0.06c-2.59,0.03-6.15,0.07-10.4,0.12l-0.23,0l0-0.24
					c-0.01-2.12-0.02-4.43-0.03-6.88c0-1.22,0-2.48-0.01-3.77c0-0.64,0-1.29,0-1.95l0-0.99l0-0.5v-0.25v-0.12v-0.06v-0.03v-0.02
					v-0.01v0c-0.24,0.25,0.33-0.34,0.27-0.28c5.21,0.01,10.09,0.03,14.24,0.04l0.24,0l0,0.24c-0.05,4.35-0.09,7.99-0.12,10.64
					c-0.03,1.21-0.05,2.19-0.06,2.93C238.24,231.71,238.22,232.06,238.21,232.04z"/>
			</g>
		</g>
		<g>
			<g>
				<path class="st1" d="M267.62,223.65c0,0.15-5.11,0.28-11.42,0.28c-6.31,0-11.42-0.12-11.42-0.28c0-0.15,5.11-0.28,11.42-0.28
					C262.51,223.38,267.62,223.5,267.62,223.65z"/>
			</g>
		</g>
		<g>
			<g>
				<path class="st1" d="M256.45,227.02c0,0.15-2.56,0.28-5.71,0.28c-3.15,0-5.71-0.12-5.71-0.28c0-0.15,2.56-0.28,5.71-0.28
					C253.89,226.74,256.45,226.86,256.45,227.02z"/>
			</g>
		</g>
		<g>
			<g>
				<path class="st1" d="M248.33,220.68c0.02,0.06-0.34,0.32-1.08,0.47c-0.36,0.07-0.87,0.05-1.33-0.25
					c-0.45-0.28-0.83-0.81-0.9-1.45c-0.07-0.64,0.18-1.23,0.54-1.62c0.36-0.4,0.83-0.58,1.21-0.62c0.78-0.07,1.18,0.27,1.14,0.32
					c-0.03,0.08-0.45-0.09-1.08,0.07c-0.31,0.08-0.65,0.25-0.9,0.57c-0.26,0.31-0.42,0.77-0.38,1.22c0.05,0.45,0.31,0.86,0.63,1.09
					c0.32,0.24,0.69,0.29,1.02,0.28C247.87,220.72,248.31,220.59,248.33,220.68z"/>
			</g>
		</g>
		<g>
			<g>
				<path class="st1" d="M252.24,217.05c0.13,0.07-0.51,1.7-1.44,3.63l-0.01,0.01l-0.23,0.48l-0.25-0.44
					c-1.07-1.87-1.83-3.44-1.7-3.51c0.13-0.08,1.1,1.37,2.17,3.23l-0.48,0.03l0.01-0.01C251.23,218.5,252.1,216.97,252.24,217.05z"
					/>
			</g>
		</g>
		<g>
			<g>
				<path class="st1" d="M237.75,232.04c-0.04,0.03-0.42-0.76-1.44-1.65c-0.97-0.92-2.7-1.8-4.74-1.88
					c-2.04-0.1-3.75,0.91-4.71,1.82c-0.99,0.92-1.35,1.72-1.41,1.68c-0.01-0.01,0.05-0.21,0.25-0.55c0.19-0.34,0.51-0.81,1-1.3
					c0.95-0.98,2.73-2.08,4.88-1.98c2.12,0.08,3.92,1.04,4.88,2.04c0.5,0.48,0.84,0.94,1.04,1.27
					C237.7,231.82,237.77,232.03,237.75,232.04z"/>
			</g>
		</g>
		<g>
			<g>
				<g>
					<path class="st1" d="M229.88,220.11c0,0,0.25-0.24,0.84-0.34c0.57-0.1,1.51-0.02,2.38,0.65c0.87,0.67,1.47,1.95,1.48,3.4
						c0,0.72-0.11,1.49-0.46,2.21c-0.34,0.72-1.03,1.32-1.84,1.52c-0.8,0.23-1.65,0.14-2.36-0.19c-0.71-0.33-1.28-0.88-1.65-1.51
						c-0.37-0.62-0.54-1.33-0.51-1.97c0.01-0.63,0.08-1.23,0.24-1.75c0.31-1.06,1-1.71,1.52-1.97c0.53-0.27,0.86-0.28,0.86-0.28
						c0.01,0.03-0.31,0.1-0.8,0.4c-0.49,0.29-1.1,0.92-1.36,1.93c-0.22,0.98-0.41,2.34,0.3,3.49c0.66,1.15,2.18,1.98,3.67,1.54
						c0.73-0.19,1.33-0.7,1.64-1.35c0.33-0.65,0.44-1.38,0.44-2.05c0.01-1.37-0.54-2.58-1.32-3.22c-0.79-0.65-1.67-0.77-2.22-0.71
						C230.17,219.96,229.89,220.14,229.88,220.11z"/>
				</g>
			</g>
			<g>
				<g>
					<path class="st1" d="M232.81,222.81c0.09,0,0.16,0.09,0.16,0.2c0,0.11-0.08,0.19-0.17,0.19c-0.09,0-0.16-0.09-0.16-0.2
						C232.64,222.89,232.72,222.8,232.81,222.81z"/>
				</g>
			</g>
			<g>
				<g>
					<path class="st1" d="M229.64,223.27c0.09,0,0.16,0.09,0.16,0.2c0,0.11-0.08,0.19-0.17,0.19c-0.09,0-0.16-0.09-0.16-0.2
						C229.47,223.35,229.55,223.26,229.64,223.27z"/>
				</g>
			</g>
			<g>
				<g>
					<path class="st1" d="M227.94,222.34c0-0.05,0.33-0.06,0.84-0.08c0.52-0.02,1.23-0.02,1.97-0.23c0.75-0.2,1.36-0.55,1.64-0.97
						c0.29-0.41,0.35-0.75,0.4-0.73c0.03,0,0.06,0.36-0.21,0.86c-0.27,0.51-0.96,0.96-1.75,1.16c-0.8,0.22-1.54,0.18-2.06,0.14
						C228.26,222.45,227.94,222.39,227.94,222.34z"/>
				</g>
			</g>
			<g>
				<g>
					<path class="st1" d="M227.95,224.95c0,0.04-0.11,0.1-0.31,0.08c-0.19-0.02-0.52-0.19-0.58-0.56c-0.03-0.18,0.01-0.37,0.12-0.49
						c0.11-0.13,0.26-0.17,0.37-0.16c0.24,0.01,0.31,0.18,0.28,0.2c-0.03,0.03-0.13-0.01-0.25,0.03c-0.13,0.04-0.24,0.17-0.2,0.36
						C227.45,224.81,227.97,224.86,227.95,224.95z"/>
				</g>
			</g>
			<g>
				<g>
					<path class="st1" d="M234.56,224.62c-0.01-0.07,0.29-0.26,0.23-0.57c-0.08-0.3-0.43-0.34-0.45-0.41
						c-0.02-0.04,0.07-0.13,0.25-0.12c0.17,0.01,0.43,0.14,0.51,0.45c0.06,0.31-0.12,0.55-0.27,0.63
						C234.68,224.7,234.57,224.66,234.56,224.62z"/>
				</g>
			</g>
			<g>
				<g>
					<path class="st1" d="M232.56,225.04c0.04,0.02,0.01,0.18-0.16,0.39c-0.16,0.2-0.48,0.42-0.89,0.45
						c-0.41,0.03-0.75-0.15-0.94-0.32c-0.19-0.18-0.25-0.33-0.21-0.36c0.06-0.06,0.48,0.39,1.13,0.35
						C232.14,225.49,232.49,224.99,232.56,225.04z"/>
				</g>
			</g>
			<g>
				<g>
					<path class="st1" d="M231.5,224.81c-0.03-0.07,0.34-0.22,0.44-0.67l0.16,0.2c-0.19,0.03-0.4-0.05-0.55-0.18
						c-0.36-0.32-0.35-0.78-0.31-1.02c0.04-0.26,0.11-0.4,0.15-0.4c0.05,0,0.06,0.17,0.08,0.41c0.02,0.24,0.06,0.56,0.29,0.76
						c0.1,0.09,0.21,0.13,0.31,0.12l0.24-0.01l-0.08,0.21C232.01,224.85,231.49,224.88,231.5,224.81z"/>
				</g>
			</g>
		</g>
		<g>
			<g>
				<path class="st1" d="M230.73,228.38c-0.09,0.01-0.18-0.19-0.19-0.45c-0.02-0.25,0.04-0.46,0.13-0.47s0.18,0.19,0.19,0.45
					C230.88,228.17,230.82,228.38,230.73,228.38z"/>
			</g>
		</g>
		<g>
			<g>
				<path class="st1" d="M232.34,228.25c-0.09,0.01-0.18-0.19-0.19-0.45c-0.02-0.25,0.04-0.46,0.13-0.47
					c0.09-0.01,0.18,0.19,0.19,0.45C232.49,228.04,232.43,228.25,232.34,228.25z"/>
			</g>
		</g>
	</g>
</g>
<g id="Folder">
</g>
<g id="Character">
</g>
</svg>
