<svg id="Layer_1" data-name="Layer 1" xmlns="http://www.w3.org/2000/svg" viewBox="0 0 686.35 793.96"><defs><style>.cls-1{fill:#ced4d4;}.cls-1,.cls-2,.cls-4,.cls-5{opacity:0.4;}.cls-2,.cls-9{fill:#b2b9ba;}.cls-3{fill:#5ec5c0;}.cls-4{fill:#bdc7c9;stroke:#bccbcb;stroke-width:3px;}.cls-13,.cls-15,.cls-16,.cls-18,.cls-20,.cls-21,.cls-22,.cls-4,.cls-6{stroke-miterlimit:10;}.cls-22,.cls-5{fill:#fff;}.cls-23,.cls-6{font-size:15.74px;}.cls-13,.cls-15,.cls-16,.cls-18,.cls-20,.cls-21,.cls-23,.cls-6{fill:#231f20;}.cls-13,.cls-15,.cls-16,.cls-18,.cls-20,.cls-21,.cls-22,.cls-6{stroke:#000;}.cls-13,.cls-15,.cls-16,.cls-18,.cls-6{stroke-width:0.5px;}.cls-15,.cls-16,.cls-18,.cls-23,.cls-6{font-family:SegoeUISymbol, Segoe UI Symbol;}.cls-7{letter-spacing:-0.07em;}.cls-8{letter-spacing:0em;}.cls-10{letter-spacing:0.03em;}.cls-11{letter-spacing:-0.02em;}.cls-12{letter-spacing:-0.01em;}.cls-14{fill:#d8d8d8;}.cls-15{font-size:20.55px;}.cls-16{font-size:18.57px;}.cls-17{letter-spacing:0em;}.cls-18{font-size:18.91px;letter-spacing:-0.01em;}.cls-19{letter-spacing:0em;}.cls-20{stroke-width:2px;}.cls-21,.cls-22{stroke-width:0.25px;}</style></defs><title>resume_temp_1</title><rect class="cls-1" y="101.88" width="347.89" height="682.69"/><rect class="cls-2" x="347.89" y="101.88" width="199.01" height="682.69"/><rect class="cls-3" width="546.89" height="101.88"/><line class="cls-4" x1="356.56" y1="768.65" x2="533.48" y2="768.65"/><line class="cls-4" x1="358.93" y1="241.71" x2="535.85" y2="241.71"/><line class="cls-4" x1="21.01" y1="339.73" x2="326.88" y2="337.31"/><line class="cls-4" x1="21.01" y1="622.33" x2="326.88" y2="619.9"/><line class="cls-4" x1="362.25" y1="637.71" x2="539.18" y2="637.71"/><line class="cls-4" x1="358.93" y1="395.25" x2="535.85" y2="395.25"/><rect class="cls-5" x="363.32" y="119.16" width="165.45" height="103.91"/><rect class="cls-5" x="364.67" y="270.82" width="165.45" height="103.91"/><rect class="cls-5" x="363.32" y="415.33" width="165.45" height="205.28"/><rect class="cls-5" x="364.67" y="654.09" width="165.45" height="103.91"/><text class="cls-6" transform="translate(370.22 288.31) scale(1.15 1)">Skills</text><text class="cls-6" transform="translate(370.22 138.7) scale(1.15 1)">INFO</text><text class="cls-6" transform="translate(374.89 433.34) scale(1.15 1)">EDUC<tspan class="cls-7" x="39.55" y="0">A</tspan><tspan class="cls-8" x="48.58" y="0">TION</tspan></text><circle class="cls-9" cx="380.6" cy="310.74" r="5.7"/><circle class="cls-9" cx="380.6" cy="328.52" r="5.7"/><circle class="cls-9" cx="384.85" cy="453.87" r="5.7"/><circle class="cls-9" cx="380.6" cy="347.88" r="5.7"/><rect class="cls-9" x="394.3" y="305.8" width="86.81" height="9.87" rx="4.94"/><rect class="cls-9" x="398.55" y="448.93" width="92.26" height="9.87" rx="4.94"/><rect class="cls-9" x="395.83" y="324.37" width="92.26" height="9.87" rx="4.94"/><rect class="cls-9" x="392.6" y="342.95" width="104.85" height="9.87" rx="4.94"/><ellipse class="cls-9" cx="385.87" cy="473.28" rx="5.7" ry="5.61"/><ellipse class="cls-9" cx="385.87" cy="491.57" rx="5.7" ry="5.61"/><ellipse class="cls-9" cx="385.87" cy="509.85" rx="5.7" ry="5.61"/><rect class="cls-9" x="399.57" y="468.43" width="86.81" height="9.72" rx="4.86"/><rect class="cls-9" x="399.57" y="486.71" width="92.26" height="9.72" rx="4.86"/><rect class="cls-9" x="397.87" y="504.99" width="104.85" height="9.72" rx="4.86"/><circle class="cls-9" cx="385.19" cy="154.54" r="5.7"/><circle class="cls-9" cx="385.19" cy="173.11" r="5.7"/><circle class="cls-9" cx="385.19" cy="191.69" r="5.7"/><rect class="cls-9" x="398.89" y="149.6" width="86.81" height="9.87" rx="4.94"/><rect class="cls-9" x="398.89" y="168.18" width="92.26" height="9.87" rx="4.94"/><rect class="cls-9" x="397.19" y="186.75" width="104.85" height="9.87" rx="4.94"/><rect class="cls-5" x="364.67" y="654.09" width="165.45" height="103.91"/><text class="cls-6" transform="translate(370.22 671.45) scale(1.15 1)"><tspan class="cls-10">L</tspan><tspan x="7.86" y="0">ANG</tspan><tspan class="cls-11" x="40.58" y="0">U</tspan><tspan class="cls-12" x="51.08" y="0">A</tspan><tspan x="61.02" y="0">GES</tspan></text><rect class="cls-9" x="372.61" y="691.52" width="68.83" height="9.87" rx="4.94"/><rect class="cls-9" x="372.61" y="707.8" width="68.83" height="9.87" rx="4.94"/><rect class="cls-9" x="372.61" y="724.09" width="68.83" height="9.87" rx="4.94"/><polygon class="cls-13" points="470.91 691.12 472.64 694.63 476.52 695.2 473.71 697.93 474.37 701.79 470.91 699.97 467.44 701.79 468.1 697.93 465.3 695.2 469.17 694.63 470.91 691.12"/><polygon class="cls-13" points="486.39 691.12 488.12 694.63 492 695.2 489.19 697.93 489.85 701.79 486.39 699.97 482.92 701.79 483.58 697.93 480.78 695.2 484.65 694.63 486.39 691.12"/><polygon class="cls-13" points="502.06 691.12 503.79 694.63 507.67 695.2 504.86 697.93 505.52 701.79 502.06 699.97 498.59 701.79 499.25 697.93 496.44 695.2 500.32 694.63 502.06 691.12"/><polygon class="cls-13" points="516.52 691.12 518.26 694.63 522.13 695.2 519.33 697.93 519.99 701.79 516.52 699.97 513.05 701.79 513.72 697.93 510.91 695.2 514.79 694.63 516.52 691.12"/><polygon class="cls-13" points="456.28 691.12 458.01 694.63 461.89 695.2 459.09 697.93 459.75 701.79 456.28 699.97 452.81 701.79 453.48 697.93 450.67 695.2 454.55 694.63 456.28 691.12"/><polygon class="cls-13" points="470.95 707.4 472.68 710.92 476.56 711.48 473.75 714.21 474.42 718.07 470.95 716.25 467.48 718.07 468.14 714.21 465.34 711.48 469.22 710.92 470.95 707.4"/><polygon class="cls-13" points="486.43 707.4 488.17 710.92 492.04 711.48 489.24 714.21 489.9 718.07 486.43 716.25 482.96 718.07 483.63 714.21 480.82 711.48 484.7 710.92 486.43 707.4"/><polygon class="cls-13" points="502.1 707.4 503.83 710.92 507.71 711.48 504.9 714.21 505.57 718.07 502.1 716.25 498.63 718.07 499.29 714.21 496.49 711.48 500.37 710.92 502.1 707.4"/><polygon class="cls-13" points="516.57 707.4 518.3 710.92 522.18 711.48 519.37 714.21 520.03 718.07 516.57 716.25 513.1 718.07 513.76 714.21 510.96 711.48 514.83 710.92 516.57 707.4"/><polygon class="cls-13" points="456.33 707.4 458.06 710.92 461.94 711.48 459.13 714.21 459.79 718.07 456.33 716.25 452.86 718.07 453.52 714.21 450.72 711.48 454.59 710.92 456.33 707.4"/><polygon class="cls-13" points="470.94 723.69 472.67 727.2 476.55 727.76 473.74 730.5 474.4 734.36 470.94 732.53 467.47 734.36 468.13 730.5 465.32 727.76 469.2 727.2 470.94 723.69"/><polygon class="cls-13" points="486.42 723.69 488.15 727.2 492.03 727.76 489.22 730.5 489.88 734.36 486.42 732.53 482.95 734.36 483.61 730.5 480.81 727.76 484.68 727.2 486.42 723.69"/><polygon class="cls-13" points="502.08 723.69 503.82 727.2 507.69 727.76 504.89 730.5 505.55 734.36 502.08 732.53 498.62 734.36 499.28 730.5 496.47 727.76 500.35 727.2 502.08 723.69"/><polygon class="cls-13" points="516.55 723.69 518.29 727.2 522.16 727.76 519.36 730.5 520.02 734.36 516.55 732.53 513.09 734.36 513.75 730.5 510.94 727.76 514.82 727.2 516.55 723.69"/><polygon class="cls-13" points="456.31 723.69 458.05 727.2 461.92 727.76 459.12 730.5 459.78 734.36 456.31 732.53 452.84 734.36 453.51 730.5 450.7 727.76 454.58 727.2 456.31 723.69"/><circle class="cls-9" cx="384.85" cy="530.85" r="5.7"/><rect class="cls-9" x="398.55" y="525.92" width="92.26" height="9.87" rx="4.94"/><circle class="cls-9" cx="385.87" cy="549.6" r="5.7"/><circle class="cls-9" cx="385.87" cy="568.17" r="5.7"/><circle class="cls-9" cx="385.87" cy="586.74" r="5.7"/><rect class="cls-9" x="399.57" y="544.66" width="86.81" height="9.87" rx="4.94"/><rect class="cls-9" x="399.57" y="563.23" width="92.26" height="9.87" rx="4.94"/><rect class="cls-9" x="397.87" y="581.81" width="104.85" height="9.87" rx="4.94"/><rect class="cls-14" x="20.43" y="119.16" width="297.19" height="197.28"/><rect class="cls-14" x="25.35" y="638.1" width="297.19" height="126.59"/><rect class="cls-14" x="20.43" y="353.59" width="297.19" height="242.51"/><text class="cls-15" transform="translate(32.43 144.03) scale(0.82 1)">ABOUT ME</text><text class="cls-16" transform="translate(32.43 380.56) scale(0.78 1)">WORK <tspan class="cls-17" x="58.31" y="0">E</tspan><tspan x="67.77" y="0">XPERIENCE</tspan></text><text class="cls-18" transform="translate(32.43 662.92) scale(0.88 1)">A<tspan class="cls-19" x="11.95" y="0">CHIEVEMENTS</tspan></text><path class="cls-20" d="M42.22,40.5h6.55c3.36,0,5.66,1.83,5.66,5s-2.28,5.14-5.84,5.14H43.66v7.84H42.22Zm1.44,8.87h5.06c3,0,4.19-1.54,4.19-3.8,0-2.42-1.62-3.78-4.08-3.78H43.66Z" transform="translate(-24.19 -25.73)"/><path class="cls-20" d="M68.92,49.65H59.57v7.56H69.81l-.21,1.28H58.16v-18H69.4v1.29H59.57v6.58h9.35Z" transform="translate(-24.19 -25.73)"/><path class="cls-20" d="M78,41.79H71.89V40.5H85.67v1.29H79.48v16.7H78Z" transform="translate(-24.19 -25.73)"/><path class="cls-20" d="M99.16,49.65H89.81v7.56h10.24l-.21,1.28H88.39v-18H99.63v1.29H89.81v6.58h9.35Z" transform="translate(-24.19 -25.73)"/><path class="cls-20" d="M105.11,50.09v8.4h-1.44v-18h6.58c3.61,0,5.52,1.9,5.52,4.73a4.09,4.09,0,0,1-3.43,4.22c1.89.43,3.15,1.64,3.15,4.7v.69a11.81,11.81,0,0,0,.23,3.65h-1.44a11.81,11.81,0,0,1-.26-3.75v-.46c0-3-.89-4.19-4.4-4.19Zm0-1.29h4.43c3.22,0,4.72-1.18,4.72-3.54s-1.47-3.47-4.33-3.47h-4.82Z" transform="translate(-24.19 -25.73)"/><path class="cls-20" d="M126.94,40.5h6.55c3.35,0,5.66,1.83,5.66,5s-2.28,5.14-5.84,5.14h-4.93v7.84h-1.44Zm1.44,8.87h5.06c3,0,4.19-1.54,4.19-3.8,0-2.42-1.63-3.78-4.09-3.78h-5.16Z" transform="translate(-24.19 -25.73)"/><path class="cls-20" d="M142.9,52.27l-2.33,6.22h-1.44l6.73-18h1.68l7,18H153l-2.38-6.22ZM150.16,51c-2-5.35-3.1-7.92-3.46-9.12h0c-.44,1.36-1.62,4.54-3.27,9.12Z" transform="translate(-24.19 -25.73)"/><path class="cls-20" d="M159.25,50.09v8.4h-1.44v-18h6.57c3.62,0,5.53,1.9,5.53,4.73a4.1,4.1,0,0,1-3.43,4.22c1.89.43,3.14,1.64,3.14,4.7v.69a11.76,11.76,0,0,0,.24,3.65h-1.44a11.81,11.81,0,0,1-.26-3.75v-.46c0-3-.89-4.19-4.4-4.19Zm0-1.29h4.43c3.22,0,4.71-1.18,4.71-3.54s-1.46-3.47-4.32-3.47h-4.82Z" transform="translate(-24.19 -25.73)"/><path class="cls-20" d="M174.4,40.5h1.41v9.36c1.47-1.39,6.71-6.22,10-9.36h1.89l-8.23,7.66,8.7,10.33h-1.76l-8-9.43-2.62,2.26v7.17H174.4Z" transform="translate(-24.19 -25.73)"/><path class="cls-20" d="M201.54,49.65h-9.35v7.56h10.24l-.21,1.28H190.77v-18H202v1.29h-9.82v6.58h9.35Z" transform="translate(-24.19 -25.73)"/><path class="cls-20" d="M207.49,50.09v8.4h-1.44v-18h6.58c3.61,0,5.52,1.9,5.52,4.73a4.1,4.1,0,0,1-3.43,4.22c1.89.43,3.14,1.64,3.14,4.7v.69a11.76,11.76,0,0,0,.24,3.65h-1.44a11.81,11.81,0,0,1-.26-3.75v-.46c0-3-.89-4.19-4.4-4.19Zm0-1.29h4.43c3.22,0,4.71-1.18,4.71-3.54s-1.46-3.47-4.32-3.47h-4.82Z" transform="translate(-24.19 -25.73)"/><path class="cls-21" d="M45.61,76.67V73.52a.43.43,0,0,0,0-.19l-3-5h.76L46,72.81c.36-.62,1.84-3.08,2.73-4.53h.72l-3.13,5.1a.39.39,0,0,0,0,.18v3.11Z" transform="translate(-24.19 -25.73)"/><path class="cls-21" d="M54.25,73.66c0,1.67-.93,3.16-2.71,3.16-1.62,0-2.63-1.33-2.63-3.14s1-3.15,2.69-3.15C53.19,70.53,54.25,71.78,54.25,73.66Zm-4.7,0c0,1.42.76,2.57,2,2.57s2-1.06,2-2.57-.72-2.58-2-2.58S49.55,72.24,49.55,73.68Z" transform="translate(-24.19 -25.73)"/><path class="cls-21" d="M60.22,74.92c0,.59,0,1.53,0,1.75h-.58a10.28,10.28,0,0,1,0-1,1.84,1.84,0,0,1-1.93,1.19c-.86,0-2-.34-2-2.17v-4h.58V74.5c0,.88.28,1.73,1.47,1.73s1.84-.75,1.84-2.47V70.68h.6Z" transform="translate(-24.19 -25.73)"/><path class="cls-21" d="M62.19,72.31c0-1,0-1.44,0-1.63h.59c0,.19,0,.57,0,1.34a2.28,2.28,0,0,1,2.09-1.49v.65a2.17,2.17,0,0,0-2.09,2.38v3.11h-.6Z" transform="translate(-24.19 -25.73)"/><path class="cls-21" d="M69.36,76.67V71.24h-1v-.56h1v-.85c0-1,.29-2.11,1.63-2.11a2.21,2.21,0,0,1,.59.08v.58a2.89,2.89,0,0,0-.65-.08c-.71,0-1,.51-1,1.55v.83h1.3v.56H70v5.43Z" transform="translate(-24.19 -25.73)"/><path class="cls-21" d="M72.27,72.31c0-1,0-1.44,0-1.63h.59c0,.19,0,.57,0,1.34A2.28,2.28,0,0,1,75,70.53v.65a2.17,2.17,0,0,0-2.09,2.38v3.11h-.6Z" transform="translate(-24.19 -25.73)"/><path class="cls-21" d="M76.06,67.83h.6V69h-.6Zm0,2.85h.6v6h-.6Z" transform="translate(-24.19 -25.73)"/><path class="cls-21" d="M78.63,72.19c0-.53,0-1,0-1.51h.59c0,.19,0,1,0,1.14a2,2,0,0,1,2-1.29c1.07,0,2,.6,2,2.26v3.88h-.6V72.88c0-1.06-.45-1.76-1.49-1.76-1.43,0-1.92,1.19-1.92,2.5v3h-.6Z" transform="translate(-24.19 -25.73)"/><path class="cls-21" d="M89.84,67.83V75c0,.57,0,1.12,0,1.72h-.58c0-.14,0-.7,0-1a2,2,0,0,1-2,1.15c-1.55,0-2.49-1.27-2.49-3.07s1-3.22,2.65-3.22c1.2,0,1.68.52,1.86.9v-3.6Zm-4.48,5.89c0,1.65.86,2.53,1.89,2.53,1.58,0,2-1.09,2-2.72s-.37-2.43-1.9-2.43C86.17,71.1,85.36,72,85.36,73.72Z" transform="translate(-24.19 -25.73)"/><path class="cls-21" d="M91.81,76.67V67.83h.6v8.84Z" transform="translate(-24.19 -25.73)"/><path class="cls-21" d="M94.34,70.68c1.21,3.43,1.74,4.84,1.94,5.49h0c.24-.73.72-2.12,1.88-5.49h.62L96.55,77c-.64,1.78-1.07,2.17-2.15,2.17a4.68,4.68,0,0,1-.55,0v-.6a4.75,4.75,0,0,0,.54,0c.86,0,1.14-.42,1.58-1.65l-2.29-6.26Z" transform="translate(-24.19 -25.73)"/><path class="cls-21" d="M103.08,72.19c0-.53,0-1,0-1.51h.59a11,11,0,0,1,0,1.14,2,2,0,0,1,2-1.29c1.06,0,2,.6,2,2.26v3.88h-.6V72.88c0-1.06-.44-1.76-1.49-1.76-1.42,0-1.91,1.19-1.91,2.5v3h-.6Z" transform="translate(-24.19 -25.73)"/><path class="cls-21" d="M109.78,73.75c0,1.54.8,2.5,2,2.5a1.68,1.68,0,0,0,1.72-1.12h.62a2.31,2.31,0,0,1-2.37,1.69c-1.82,0-2.53-1.57-2.53-3.1,0-1.71.85-3.19,2.61-3.19a2.48,2.48,0,0,1,2.43,2.73c0,.16,0,.33,0,.49Zm3.81-.53c0-1.19-.66-2.12-1.84-2.12s-1.8.86-1.93,2.12Z" transform="translate(-24.19 -25.73)"/><path class="cls-21" d="M115.74,67.83h.6V69h-.6Zm0,2.85h.6v6h-.6Z" transform="translate(-24.19 -25.73)"/><path class="cls-21" d="M122.89,76.27c0,1.92-.86,2.92-2.6,2.92a2.11,2.11,0,0,1-2.35-1.78h.62a1.66,1.66,0,0,0,1.76,1.22c1.56,0,2-1,2-2.53v-.62a1.9,1.9,0,0,1-2,1.19c-1.41,0-2.49-1.13-2.49-3,0-2,1.16-3.15,2.57-3.15a1.83,1.83,0,0,1,1.92,1.06c0-.35,0-.77,0-.91h.56c0,.21,0,1.16,0,1.74Zm-4.43-2.62c0,1.43.76,2.46,1.91,2.46,1.5,0,1.95-1,1.95-2.55s-.48-2.46-1.92-2.46S118.46,72.28,118.46,73.65Z" transform="translate(-24.19 -25.73)"/><path class="cls-21" d="M125.46,67.83v3.86a2.07,2.07,0,0,1,2-1.16c.86,0,2,.44,2,2.33v3.81h-.6V73c0-1.19-.54-1.86-1.53-1.86-1.19,0-1.87.73-1.87,2.21v3.34h-.6V67.83Z" transform="translate(-24.19 -25.73)"/><path class="cls-21" d="M131.43,67.83h.6v3.86a2.08,2.08,0,0,1,2.05-1.16c1.42,0,2.46,1.17,2.46,3s-.93,3.28-2.61,3.28a1.87,1.87,0,0,1-1.9-1.09c0,.38,0,.78,0,.94h-.59c0-.68,0-1.36,0-2Zm4.48,5.73c0-1.5-.75-2.46-1.89-2.46-1.5,0-2,1-2,2.59,0,1.41.46,2.56,1.95,2.56C135.16,76.25,135.91,75.25,135.91,73.56Z" transform="translate(-24.19 -25.73)"/><path class="cls-21" d="M143,73.66c0,1.67-.92,3.16-2.71,3.16-1.62,0-2.63-1.33-2.63-3.14s.95-3.15,2.69-3.15S143,71.78,143,73.66Zm-4.7,0c0,1.42.77,2.57,2,2.57s2-1.06,2-2.57-.72-2.58-2.06-2.58S138.26,72.24,138.26,73.68Z" transform="translate(-24.19 -25.73)"/><path class="cls-21" d="M148.94,74.92c0,.59,0,1.53,0,1.75h-.58c0-.15,0-.55,0-1a1.84,1.84,0,0,1-1.93,1.19c-.87,0-2-.34-2-2.17v-4H145V74.5c0,.88.27,1.73,1.46,1.73,1.34,0,1.85-.75,1.85-2.47V70.68h.6Z" transform="translate(-24.19 -25.73)"/><path class="cls-21" d="M150.91,72.31c0-1,0-1.44,0-1.63h.58c0,.19,0,.57,0,1.34a2.26,2.26,0,0,1,2.08-1.49v.65a2.17,2.17,0,0,0-2.08,2.38v3.11h-.6Z" transform="translate(-24.19 -25.73)"/><path class="cls-21" d="M155.39,67.83v3.86a2.1,2.1,0,0,1,2-1.16c.86,0,2,.44,2,2.33v3.81h-.6V73c0-1.19-.54-1.86-1.53-1.86-1.19,0-1.88.73-1.88,2.21v3.34h-.6V67.83Z" transform="translate(-24.19 -25.73)"/><path class="cls-21" d="M166.23,73.66c0,1.67-.92,3.16-2.71,3.16-1.62,0-2.63-1.33-2.63-3.14s1-3.15,2.69-3.15C165.17,70.53,166.23,71.78,166.23,73.66Zm-4.7,0c0,1.42.76,2.57,2,2.57s2-1.06,2-2.57-.72-2.58-2.05-2.58S161.53,72.24,161.53,73.68Z" transform="translate(-24.19 -25.73)"/><path class="cls-21" d="M172.65,73.66c0,1.67-.92,3.16-2.71,3.16-1.62,0-2.63-1.33-2.63-3.14s.95-3.15,2.69-3.15C171.59,70.53,172.65,71.78,172.65,73.66Zm-4.7,0c0,1.42.76,2.57,2,2.57s2-1.06,2-2.57-.72-2.58-2-2.58S168,72.24,168,73.68Z" transform="translate(-24.19 -25.73)"/><path class="cls-21" d="M178.84,67.83V75c0,.57,0,1.12,0,1.72h-.57a9.06,9.06,0,0,1,0-1,2,2,0,0,1-2,1.15c-1.56,0-2.5-1.27-2.5-3.07s1-3.22,2.65-3.22c1.2,0,1.68.52,1.86.9v-3.6Zm-4.47,5.89c0,1.65.85,2.53,1.88,2.53,1.58,0,2-1.09,2-2.72s-.37-2.43-1.9-2.43C175.17,71.1,174.37,72,174.37,73.72Z" transform="translate(-24.19 -25.73)"/><path class="cls-21" d="M184.18,74.42a2.15,2.15,0,0,0,2.38,1.77c1.53,0,2.12-.76,2.12-1.67s-.42-1.54-2.27-2-2.54-1-2.54-2.23.8-2.13,2.6-2.13a2.47,2.47,0,0,1,2.74,2.15h-.67a1.88,1.88,0,0,0-2.1-1.55c-1.21,0-1.87.56-1.87,1.5s.55,1.28,2.1,1.66c2.36.59,2.71,1.54,2.71,2.55,0,1.23-.9,2.3-2.85,2.3a2.69,2.69,0,0,1-3-2.35Z" transform="translate(-24.19 -25.73)"/><path class="cls-21" d="M191.43,75.79v3.28h-.6V72.15c0-.49,0-1,0-1.47h.59c0,.23,0,.59,0,1.08a2.2,2.2,0,0,1,2.11-1.23c1.42,0,2.4,1.19,2.4,3,0,2.16-1.15,3.3-2.6,3.3A2,2,0,0,1,191.43,75.79Zm3.87-2.25c0-1.39-.67-2.43-1.85-2.43-1.46,0-2.06.91-2.06,2.54s.47,2.6,2,2.6C194.61,76.25,195.3,75.2,195.3,73.54Z" transform="translate(-24.19 -25.73)"/><path class="cls-21" d="M197.49,67.83h.6V69h-.6Zm0,2.85h.6v6h-.6Z" transform="translate(-24.19 -25.73)"/><path class="cls-21" d="M204.69,67.83V75c0,.57,0,1.12,0,1.72h-.58c0-.14,0-.7,0-1a2,2,0,0,1-2,1.15c-1.56,0-2.49-1.27-2.49-3.07s1-3.22,2.65-3.22c1.2,0,1.68.52,1.86.9v-3.6Zm-4.48,5.89c0,1.65.86,2.53,1.89,2.53,1.58,0,2-1.09,2-2.72s-.37-2.43-1.9-2.43C201,71.1,200.21,72,200.21,73.72Z" transform="translate(-24.19 -25.73)"/><path class="cls-21" d="M206.79,73.75c0,1.54.79,2.5,1.94,2.5a1.69,1.69,0,0,0,1.73-1.12h.61a2.3,2.3,0,0,1-2.36,1.69c-1.82,0-2.53-1.57-2.53-3.1,0-1.71.85-3.19,2.6-3.19a2.49,2.49,0,0,1,2.44,2.73,4,4,0,0,1,0,.49Zm3.8-.53a1.89,1.89,0,0,0-1.83-2.12c-1.24,0-1.8.86-1.93,2.12Z" transform="translate(-24.19 -25.73)"/><path class="cls-21" d="M212.68,72.31c0-1,0-1.44,0-1.63h.59c0,.19,0,.57,0,1.34a2.28,2.28,0,0,1,2.09-1.49v.65a2.17,2.17,0,0,0-2.09,2.38v3.11h-.6Z" transform="translate(-24.19 -25.73)"/><path class="cls-21" d="M227.15,72.81c0-1.64,0-3.21,0-4h0c-.33,1.13-2,5.26-3.1,7.91h-.64c-.8-2-2.57-6.65-2.95-7.92h0c.06,1,.08,2.91.08,4.35v3.57h-.65V68.28h1c1.15,2.88,2.61,6.64,2.92,7.59h0c.19-.61,1.87-4.8,3.05-7.59h1v8.39h-.65Z" transform="translate(-24.19 -25.73)"/><path class="cls-21" d="M233.91,75.54a7.67,7.67,0,0,0,.08,1.13h-.57a3.49,3.49,0,0,1-.11-.92,2,2,0,0,1-2,1.07,1.79,1.79,0,0,1-2-1.8c0-1.32,1-1.92,2.82-1.92h1.14v-.61c0-.6-.18-1.4-1.55-1.4-1.21,0-1.39.63-1.52,1.12h-.6a1.86,1.86,0,0,1,2.13-1.68c1.37,0,2.14.58,2.14,1.9Zm-.59-1.92h-1.18c-1.33,0-2.15.34-2.15,1.38a1.25,1.25,0,0,0,1.38,1.27c1.71,0,1.95-1.14,1.95-2.44Z" transform="translate(-24.19 -25.73)"/><path class="cls-21" d="M235.89,72.19c0-.53,0-1,0-1.51h.59c0,.19,0,1,0,1.14a2,2,0,0,1,2-1.29c1.07,0,2,.6,2,2.26v3.88h-.6V72.88c0-1.06-.45-1.76-1.49-1.76-1.43,0-1.92,1.19-1.92,2.5v3h-.6Z" transform="translate(-24.19 -25.73)"/><circle class="cls-22" cx="485.7" cy="50.94" r="35.11"/><rect class="cls-5" x="577.16" y="645.14" width="25.96" height="20.19"/><rect class="cls-4" x="577.16" y="705.31" width="25.96" height="17.53"/><rect class="cls-13" x="577.16" y="761.36" width="25.96" height="20.19"/><rect class="cls-9" x="577.16" y="614.34" width="25.96" height="20.19"/><rect class="cls-3" x="577.16" y="732" width="25.96" height="20.19"/><rect class="cls-1" x="577.16" y="675.95" width="25.96" height="20.19"/><rect class="cls-14" x="577.16" y="583.53" width="25.96" height="20.19"/><text class="cls-23" transform="translate(619.15 598.81) scale(1.15 1)">D8D8D8</text><text class="cls-23" transform="translate(619.15 632) scale(1.15 1)">B2B9BA</text><text class="cls-23" transform="translate(619.15 660.6) scale(1.15 1)">FFFFFF</text><text class="cls-23" transform="translate(619.15 691.12) scale(1.15 1)">CED4D4</text><text class="cls-23" transform="translate(619.15 723.69) scale(1.15 1)">BDC7C9</text><text class="cls-23" transform="translate(620.68 752.19) scale(1.15 1)">5EC5C0</text><text class="cls-23" transform="translate(620.68 781.54) scale(1.15 1)">231F20</text></svg>