<?xml version="1.0" encoding="utf-8"?>
<!-- Generator: Adobe Illustrator 23.0.2, SVG Export Plug-In . SVG Version: 6.00 Build 0)  -->
<svg version="1.1" xmlns="http://www.w3.org/2000/svg" xmlns:xlink="http://www.w3.org/1999/xlink" x="0px" y="0px"
	 viewBox="0 0 500 500" style="enable-background:new 0 0 500 500;" xml:space="preserve">
<style type="text/css">
	.st0{fill:#E0E0E0;}
	.st1{fill:#F5F5F5;}
	.st2{fill:#EBEBEB;}
	.st3{fill:#FFFFFF;}
	.st4{fill:#263238;}
	.st5{fill:none;stroke:#4E585D;stroke-width:0.02;stroke-miterlimit:10;}
	.st6{fill:#E8505B;}
	.st7{opacity:0.4;}
	.st8{fill:#FFBE9D;}
	.st9{fill:#455A64;}
</style>
<g id="Background_Complete">
	<g>
		<polygon class="st0" points="339.2,367.82 336.94,465.63 332.63,465.63 332.9,368.07 		"/>
		<polygon class="st0" points="354.78,366.74 375.76,465.63 380.57,465.63 363.11,366.74 		"/>
		<polygon class="st0" points="315.47,367.82 292.26,465.63 287.45,465.63 308.51,367.42 		"/>
		<g>
			<g>
				<g>
					<g>
						<g>
							<path class="st1" d="M376.33,267.86c0,0,25.14-1.43,22.62,27.65c-2.51,29.09-3.95,58.53-13.29,68.58
								c-9.34,10.05-103.42,10.41-111.32,2.15c-7.9-8.26,15.08-7.9,19.39-7.9c4.31,0,30.88,2.51,39.5-20.11
								C341.85,315.62,339.7,266.42,376.33,267.86z"/>
						</g>
						<g>
							<path class="st0" d="M377.94,267.87c0,0,19.22,3.93,17.42,24.04c-1.8,20.11-6.82,55.3-16.16,64.27
								c-9.34,8.98-45.92,10.93-65.71,9.7c-22.98-1.44-37.49-5.81-37.49-5.81s-4.19,2.7-2.92,4.43c1.27,1.74,12.47,8.72,66.79,7.56
								c54.32-1.16,50.54-9.18,52.8-17.93c2.26-8.76,6.99-55.43,6.33-65.69C398.34,278.18,393.17,269.67,377.94,267.87z"/>
						</g>
					</g>
				</g>
				<g>
					<path class="st2" d="M362.17,307.02c0,1.47,0.93,2.67,2.08,2.67c1.15,0,2.08-1.19,2.08-2.67c0-1.47-0.93-2.67-2.08-2.67
						C363.1,304.36,362.17,305.55,362.17,307.02z"/>
				</g>
				<g>
					<g>
						<path class="st2" d="M363.59,295.25c0.13,0.04-0.67,1.44-0.71,3.88c-0.01,1.2,0.22,2.65,0.92,4.08
							c0.35,0.7,0.8,1.44,1.37,2.04c0.29,0.31,0.65,0.61,0.96,1.04c0.32,0.42,0.47,1.06,0.36,1.6c-0.23,1.06-0.8,1.82-1.06,2.61
							c-0.24,0.76-0.32,1.64-0.31,2.42c0.02,1.59,0.49,2.98,1.05,4.04c1.16,2.15,2.52,3,2.43,3.1c-0.02,0.04-0.38-0.14-0.93-0.58
							c-0.55-0.44-1.29-1.18-1.94-2.28c-0.65-1.09-1.21-2.57-1.27-4.28c-0.02-0.86,0.02-1.73,0.31-2.67c0.31-0.9,0.86-1.69,1.02-2.5
							c0.19-0.8-0.46-1.36-1.12-2.02c-0.65-0.71-1.09-1.47-1.46-2.24c-0.72-1.55-0.91-3.11-0.83-4.38c0.08-1.28,0.39-2.27,0.67-2.92
							C363.32,295.54,363.55,295.23,363.59,295.25z"/>
					</g>
				</g>
				<g>
					<g>
						<path class="st2" d="M357.9,303.57c0.12,0.02,0.03,0.63,0.29,1.52c0.25,0.88,0.93,2.03,2.09,2.82
							c1.17,0.79,2.47,1.08,3.41,1.22c0.95,0.14,1.55,0.16,1.56,0.27c0.01,0.09-0.6,0.25-1.6,0.24c-0.99-0.01-2.45-0.24-3.78-1.13
							c-1.33-0.9-2.04-2.28-2.18-3.31C357.53,304.16,357.82,303.54,357.9,303.57z"/>
					</g>
				</g>
			</g>
		</g>
	</g>
	<g>
		<polygon class="st0" points="419.79,466.5 423.54,466.49 417.61,323.11 413.87,323.31 		"/>
		<g>
			<polygon class="st0" points="211.68,466.66 215.42,466.89 222.46,323.48 218.73,323.25 			"/>
			<polygon class="st0" points="246.53,467.57 250.27,467.8 257.12,325.42 253.39,325.19 			"/>
			<polygon class="st0" points="443.22,466.49 446.97,466.49 440.96,323.24 437.22,323.44 			"/>
			<g>
				<g>
					<g>
						<g>
							<rect x="205.32" y="321.56" class="st0" width="245.52" height="7.38"/>
						</g>
					</g>
				</g>
			</g>
		</g>
	</g>
	<g>
		<g>
			<polygon class="st2" points="224.2,274.36 241.75,320.72 321.21,320.72 320.62,318.33 288.49,317.43 273.69,274.34 			"/>
		</g>
		<g>
			<path class="st3" d="M259.41,297.49c0.52,1.9-0.38,3.76-2.01,4.15c-1.63,0.4-3.39-0.82-3.91-2.72c-0.52-1.9,0.38-3.76,2.01-4.15
				C257.14,294.37,258.89,295.59,259.41,297.49z"/>
		</g>
	</g>
</g>
<g id="Background_Simple">
	<path class="st1" d="M411.42,90.67c25.23,50.27,17.25,113.72-14.28,160.3c-31.53,46.58-83.99,76.73-139.16,87.71
		c-39.38,7.84-81.74,6.24-117.72-11.58c-35.98-17.82-64.27-53.67-66.43-93.76c-0.81-15.14,2.4-31.22,12.5-42.53
		c16.14-18.06,43.68-18.69,67.89-17.95s51.73,0.18,67.95-17.8c12.46-13.82,14.29-33.86,20.86-51.27
		c11.16-29.6,38.1-52.72,69.05-59.26c4.3-0.91,8.66-1.49,13.03-1.77c34.04-2.13,66.33,15.39,84.19,44.45L411.42,90.67z"/>
</g>
<g id="Floor">
	<g>
		<g>
			<path class="st4" d="M460.15,466.49c0,0.15-95.65,0.28-213.61,0.28c-118,0-213.63-0.12-213.63-0.28
				c0-0.15,95.63-0.28,213.63-0.28C364.5,466.22,460.15,466.34,460.15,466.49z"/>
		</g>
	</g>
</g>
<g id="Documents">
	<g id="sideDocs">
		<g>
			<g>
				
					<rect x="336" y="87.31" transform="matrix(-1 -1.224647e-16 1.224647e-16 -1 699.9891 213.1541)" class="st2" width="27.99" height="38.54"/>
			</g>
			<g>
				<g>
					<path class="st4" d="M359.59,95.07c0,0.06-2,0.1-4.47,0.1c-2.47,0-4.48-0.05-4.48-0.1c0-0.06,2-0.1,4.48-0.1
						C357.59,94.96,359.59,95.01,359.59,95.07z"/>
				</g>
			</g>
			<g>
				<g>
					<path class="st4" d="M355.12,100.12c0,0.06-1,0.1-2.24,0.1c-1.24,0-2.24-0.05-2.24-0.1c0-0.06,1-0.1,2.24-0.1
						C354.12,100.02,355.12,100.07,355.12,100.12z"/>
				</g>
			</g>
			<g>
				<g>
					<path class="st4" d="M344.35,101.59c0,0.06-1,0.1-2.24,0.1c-1.24,0-2.24-0.05-2.24-0.1c0-0.06,1-0.1,2.24-0.1
						C343.35,101.48,344.35,101.53,344.35,101.59z"/>
				</g>
			</g>
			<g>
				<g>
					<path class="st4" d="M346.65,103.74c0,0.06-1.52,0.1-3.39,0.1c-1.87,0-3.39-0.05-3.39-0.1c0-0.06,1.52-0.1,3.39-0.1
						C345.14,103.64,346.65,103.68,346.65,103.74z"/>
				</g>
			</g>
			<g>
				<g>
					<path class="st4" d="M344.35,107.41c0,0.06-1,0.1-2.24,0.1c-1.24,0-2.24-0.05-2.24-0.1c0-0.06,1-0.1,2.24-0.1
						C343.35,107.3,344.35,107.35,344.35,107.41z"/>
				</g>
			</g>
			<g>
				<g>
					<path class="st4" d="M346.65,109.56c0,0.06-1.52,0.1-3.39,0.1c-1.87,0-3.39-0.05-3.39-0.1c0-0.06,1.52-0.1,3.39-0.1
						C345.14,109.45,346.65,109.5,346.65,109.56z"/>
				</g>
			</g>
			<g>
				<g>
					<path class="st4" d="M344.35,112.96c0,0.06-1,0.1-2.24,0.1c-1.24,0-2.24-0.05-2.24-0.1c0-0.06,1-0.1,2.24-0.1
						C343.35,112.85,344.35,112.9,344.35,112.96z"/>
				</g>
			</g>
			<g>
				<g>
					<path class="st4" d="M346.65,115.11c0,0.06-1.52,0.1-3.39,0.1c-1.87,0-3.39-0.05-3.39-0.1c0-0.06,1.52-0.1,3.39-0.1
						C345.14,115.01,346.65,115.05,346.65,115.11z"/>
				</g>
			</g>
			<g>
				<g>
					<path class="st4" d="M360.84,103.87c0,0.06-2.28,0.1-5.1,0.1c-2.82,0-5.1-0.05-5.1-0.1c0-0.06,2.28-0.1,5.1-0.1
						C358.56,103.77,360.84,103.81,360.84,103.87z"/>
				</g>
			</g>
			<g>
				<g>
					<path class="st4" d="M354.68,107.62c0,0.06-0.9,0.1-2.02,0.1c-1.12,0-2.02-0.05-2.02-0.1c0-0.06,0.9-0.1,2.02-0.1
						C353.78,107.51,354.68,107.56,354.68,107.62z"/>
				</g>
			</g>
			<g>
				<g>
					<path class="st4" d="M360.84,111.36c0,0.06-2.28,0.1-5.1,0.1c-2.82,0-5.1-0.05-5.1-0.1s2.28-0.1,5.1-0.1
						C358.56,111.26,360.84,111.31,360.84,111.36z"/>
				</g>
			</g>
			<g>
				<g>
					<path class="st4" d="M360.84,115.11c0,0.06-2.28,0.1-5.1,0.1c-2.82,0-5.1-0.05-5.1-0.1c0-0.06,2.28-0.1,5.1-0.1
						C358.56,115.01,360.84,115.05,360.84,115.11z"/>
				</g>
			</g>
			<g>
				<g>
					<path class="st4" d="M360.31,119.03c0,0.06-2.28,0.1-5.1,0.1c-2.82,0-5.1-0.05-5.1-0.1c0-0.06,2.28-0.1,5.1-0.1
						C358.02,118.93,360.31,118.98,360.31,119.03z"/>
				</g>
			</g>
			<g>
				<g>
					<g>
						<path class="st4" d="M347.35,98.83c0,0-0.01-0.2-0.02-0.54c-0.01-0.43-0.01-0.92-0.02-1.49c-0.01-1.4-0.03-3.18-0.05-5.27
							l0.09,0.09c-2.16,0-4.65,0.01-7.31,0.01c-0.02,0.02,0.2-0.2,0.1-0.1v0v0v0.01v0.02v0.03l0,0.06v0.13v0.25l0,0.5
							c0,0.33,0,0.65,0,0.98c0,0.64,0,1.27,0,1.89c0,1.22-0.01,2.37-0.01,3.45l-0.09-0.09c2.09,0.02,3.87,0.03,5.27,0.05
							c0.57,0.01,1.07,0.02,1.49,0.02C347.16,98.82,347.35,98.83,347.35,98.83s-0.17,0.01-0.51,0.02c-0.42,0.01-0.91,0.01-1.47,0.02
							c-1.41,0.01-3.21,0.03-5.33,0.05l-0.09,0l0-0.09c0-1.07-0.01-2.23-0.01-3.45c0-0.61,0-1.25,0-1.89c0-0.32,0-0.65,0-0.98l0-0.5
							v-0.25v-0.13v-0.06v-0.03v-0.02v-0.01v0v0c-0.09,0.09,0.13-0.13,0.1-0.11c2.66,0.01,5.15,0.01,7.31,0.01l0.09,0l0,0.09
							c-0.02,2.11-0.03,3.92-0.05,5.33c-0.01,0.57-0.02,1.05-0.02,1.47C347.37,98.66,347.35,98.83,347.35,98.83z"/>
					</g>
				</g>
				<g>
					<g>
						<path class="st4" d="M347.35,94.81c-0.01,0.01-0.15-0.07-0.38-0.22c-0.34-0.23-0.67-0.45-0.99-0.67l0.1-0.01
							c-0.75,0.72-1.47,1.42-2.25,2.17l-0.05,0.05l-0.06,0.06l-0.07-0.05c-0.47-0.34-0.92-0.66-1.37-0.99l0.12-0.01
							c-0.55,0.46-1.1,0.91-1.67,1.38c-0.41,0.33-0.66,0.52-0.68,0.5c-0.01-0.02,0.21-0.23,0.6-0.59c0.55-0.49,1.08-0.96,1.62-1.44
							l0.06-0.05l0.06,0.04c0.45,0.32,0.9,0.64,1.37,0.97l-0.13,0.01l0.05-0.05c0.79-0.74,1.53-1.43,2.28-2.14l0.05-0.05l0.05,0.04
							c0.31,0.24,0.63,0.48,0.95,0.73C347.24,94.69,347.36,94.8,347.35,94.81z"/>
					</g>
				</g>
				<g>
					<g>
						<path class="st4" d="M344.51,93.24c-0.04,0.02-0.01-0.36-0.39-0.65c-0.18-0.13-0.48-0.21-0.76-0.1
							c-0.28,0.1-0.52,0.4-0.51,0.74c0,0.35,0.23,0.64,0.51,0.74c0.28,0.11,0.58,0.04,0.76-0.1
							C344.51,93.59,344.47,93.22,344.51,93.24c0.01-0.02,0.12,0.38-0.31,0.76c-0.21,0.18-0.56,0.28-0.92,0.16
							c-0.35-0.11-0.66-0.48-0.66-0.92c0-0.44,0.31-0.81,0.66-0.92c0.35-0.12,0.71-0.02,0.92,0.16
							C344.63,92.85,344.53,93.26,344.51,93.24z"/>
					</g>
				</g>
			</g>
		</g>
		<g>
			<g>
				
					<rect x="123.76" y="87.31" transform="matrix(-1 -1.224647e-16 1.224647e-16 -1 275.5114 213.1541)" class="st2" width="27.99" height="38.54"/>
			</g>
			<g>
				<g>
					<path class="st4" d="M147.35,95.07c0,0.06-2,0.1-4.47,0.1c-2.47,0-4.48-0.05-4.48-0.1c0-0.06,2-0.1,4.48-0.1
						C145.35,94.96,147.35,95.01,147.35,95.07z"/>
				</g>
			</g>
			<g>
				<g>
					<path class="st4" d="M142.88,100.12c0,0.06-1,0.1-2.24,0.1c-1.24,0-2.24-0.05-2.24-0.1c0-0.06,1-0.1,2.24-0.1
						C141.88,100.02,142.88,100.07,142.88,100.12z"/>
				</g>
			</g>
			<g>
				<g>
					<path class="st4" d="M132.11,101.59c0,0.06-1,0.1-2.24,0.1c-1.24,0-2.24-0.05-2.24-0.1c0-0.06,1-0.1,2.24-0.1
						C131.11,101.48,132.11,101.53,132.11,101.59z"/>
				</g>
			</g>
			<g>
				<g>
					<path class="st4" d="M134.41,103.74c0,0.06-1.52,0.1-3.39,0.1c-1.87,0-3.39-0.05-3.39-0.1c0-0.06,1.52-0.1,3.39-0.1
						C132.9,103.64,134.41,103.68,134.41,103.74z"/>
				</g>
			</g>
			<g>
				<g>
					<path class="st4" d="M132.11,107.41c0,0.06-1,0.1-2.24,0.1c-1.24,0-2.24-0.05-2.24-0.1c0-0.06,1-0.1,2.24-0.1
						C131.11,107.3,132.11,107.35,132.11,107.41z"/>
				</g>
			</g>
			<g>
				<g>
					<path class="st4" d="M134.41,109.56c0,0.06-1.52,0.1-3.39,0.1c-1.87,0-3.39-0.05-3.39-0.1c0-0.06,1.52-0.1,3.39-0.1
						C132.9,109.45,134.41,109.5,134.41,109.56z"/>
				</g>
			</g>
			<g>
				<g>
					<path class="st4" d="M132.11,112.96c0,0.06-1,0.1-2.24,0.1c-1.24,0-2.24-0.05-2.24-0.1c0-0.06,1-0.1,2.24-0.1
						C131.11,112.85,132.11,112.9,132.11,112.96z"/>
				</g>
			</g>
			<g>
				<g>
					<path class="st4" d="M134.41,115.11c0,0.06-1.52,0.1-3.39,0.1c-1.87,0-3.39-0.05-3.39-0.1c0-0.06,1.52-0.1,3.39-0.1
						C132.9,115.01,134.41,115.05,134.41,115.11z"/>
				</g>
			</g>
			<g>
				<g>
					<path class="st4" d="M148.6,103.87c0,0.06-2.28,0.1-5.1,0.1c-2.82,0-5.1-0.05-5.1-0.1c0-0.06,2.28-0.1,5.1-0.1
						C146.32,103.77,148.6,103.81,148.6,103.87z"/>
				</g>
			</g>
			<g>
				<g>
					<path class="st4" d="M142.45,107.62c0,0.06-0.9,0.1-2.02,0.1c-1.12,0-2.02-0.05-2.02-0.1c0-0.06,0.9-0.1,2.02-0.1
						C141.54,107.51,142.45,107.56,142.45,107.62z"/>
				</g>
			</g>
			<g>
				<g>
					<path class="st4" d="M148.6,111.36c0,0.06-2.28,0.1-5.1,0.1c-2.82,0-5.1-0.05-5.1-0.1s2.28-0.1,5.1-0.1
						C146.32,111.26,148.6,111.31,148.6,111.36z"/>
				</g>
			</g>
			<g>
				<g>
					<path class="st4" d="M148.6,115.11c0,0.06-2.28,0.1-5.1,0.1c-2.82,0-5.1-0.05-5.1-0.1c0-0.06,2.28-0.1,5.1-0.1
						C146.32,115.01,148.6,115.05,148.6,115.11z"/>
				</g>
			</g>
			<g>
				<g>
					<path class="st4" d="M148.07,119.03c0,0.06-2.28,0.1-5.1,0.1c-2.82,0-5.1-0.05-5.1-0.1c0-0.06,2.28-0.1,5.1-0.1
						C145.79,118.93,148.07,118.98,148.07,119.03z"/>
				</g>
			</g>
			<g>
				<g>
					<g>
						<path class="st4" d="M135.11,98.83c0,0-0.01-0.2-0.02-0.54c-0.01-0.43-0.01-0.92-0.02-1.49c-0.01-1.4-0.03-3.18-0.05-5.27
							l0.09,0.09c-2.16,0-4.65,0.01-7.31,0.01c-0.02,0.02,0.2-0.2,0.1-0.1v0v0v0.01v0.02v0.03v0.06v0.13l0,0.25l0,0.5
							c0,0.33,0,0.65,0,0.98c0,0.64,0,1.27,0,1.89c0,1.22-0.01,2.37-0.01,3.45l-0.09-0.09c2.09,0.02,3.87,0.03,5.27,0.05
							c0.57,0.01,1.07,0.02,1.49,0.02C134.92,98.82,135.11,98.83,135.11,98.83s-0.17,0.01-0.51,0.02c-0.42,0.01-0.91,0.01-1.47,0.02
							c-1.41,0.01-3.21,0.03-5.33,0.05l-0.09,0l0-0.09c0-1.07-0.01-2.23-0.01-3.45c0-0.61,0-1.25,0-1.89c0-0.32,0-0.65,0-0.98l0-0.5
							v-0.25v-0.13v-0.06v-0.03v-0.02v-0.01v0v0c-0.09,0.09,0.13-0.13,0.1-0.11c2.66,0.01,5.15,0.01,7.31,0.01l0.09,0l0,0.09
							c-0.02,2.11-0.03,3.92-0.05,5.33c-0.01,0.57-0.02,1.05-0.02,1.47C135.13,98.66,135.11,98.83,135.11,98.83z"/>
					</g>
				</g>
				<g>
					<g>
						<path class="st4" d="M135.11,94.81c-0.01,0.01-0.15-0.07-0.38-0.22c-0.34-0.23-0.67-0.45-0.99-0.67l0.1-0.01
							c-0.75,0.72-1.47,1.42-2.25,2.17l-0.05,0.05l-0.06,0.06l-0.07-0.05c-0.47-0.34-0.92-0.66-1.37-0.99l0.12-0.01
							c-0.55,0.46-1.1,0.91-1.67,1.38c-0.41,0.33-0.66,0.52-0.68,0.5c-0.01-0.02,0.21-0.23,0.6-0.59c0.55-0.49,1.08-0.96,1.62-1.44
							l0.06-0.05l0.06,0.04c0.45,0.32,0.9,0.64,1.37,0.97l-0.13,0.01l0.05-0.05c0.79-0.74,1.53-1.43,2.29-2.14l0.05-0.05l0.05,0.04
							c0.31,0.24,0.63,0.48,0.95,0.73C135,94.69,135.12,94.8,135.11,94.81z"/>
					</g>
				</g>
				<g>
					<g>
						<path class="st4" d="M132.27,93.24c-0.04,0.02-0.01-0.36-0.39-0.65c-0.18-0.13-0.48-0.21-0.76-0.1
							c-0.28,0.1-0.52,0.4-0.51,0.74c0,0.35,0.23,0.64,0.51,0.74c0.28,0.11,0.58,0.04,0.76-0.1
							C132.27,93.59,132.23,93.22,132.27,93.24c0.01-0.02,0.12,0.38-0.31,0.76c-0.21,0.18-0.56,0.28-0.92,0.16
							c-0.35-0.11-0.66-0.48-0.66-0.92c0-0.44,0.31-0.81,0.66-0.92c0.35-0.12,0.71-0.02,0.92,0.16
							C132.4,92.85,132.29,93.26,132.27,93.24z"/>
					</g>
				</g>
			</g>
		</g>
		<g>
			<g>
				<rect x="289.67" y="76.66" class="st2" width="34.06" height="48.96"/>
			</g>
			<g>
				<g>
					<path class="st4" d="M310.6,91.67c0,0.09-1.32,0.16-2.94,0.16c-1.63,0-2.94-0.07-2.94-0.16c0-0.09,1.32-0.16,2.94-0.16
						C309.29,91.51,310.6,91.58,310.6,91.67z"/>
				</g>
			</g>
			<g>
				<g>
					<g>
						<path class="st4" d="M301.27,92.9c0,0.09-1.85,0.16-4.13,0.16c-2.28,0-4.13-0.07-4.13-0.16c0-0.09,1.85-0.16,4.13-0.16
							C299.42,92.75,301.27,92.82,301.27,92.9z"/>
					</g>
				</g>
				<g>
					<g>
						<path class="st4" d="M301.27,95.07c0,0.09-1.85,0.16-4.13,0.16c-2.28,0-4.13-0.07-4.13-0.16c0-0.09,1.85-0.16,4.13-0.16
							C299.42,94.91,301.27,94.98,301.27,95.07z"/>
					</g>
				</g>
				<g>
					<g>
						<path class="st4" d="M301.27,97.23c0,0.09-1.85,0.16-4.13,0.16c-2.28,0-4.13-0.07-4.13-0.16c0-0.09,1.85-0.16,4.13-0.16
							C299.42,97.07,301.27,97.14,301.27,97.23z"/>
					</g>
				</g>
				<g>
					<g>
						<path class="st4" d="M297.6,99.39c0,0.09-1.03,0.16-2.3,0.16c-1.27,0-2.3-0.07-2.3-0.16c0-0.09,1.03-0.16,2.3-0.16
							C296.58,99.24,297.6,99.31,297.6,99.39z"/>
					</g>
				</g>
			</g>
			<g>
				<g>
					<path class="st4" d="M317.99,95.18c0,0.09-2.97,0.16-6.64,0.16c-3.67,0-6.64-0.07-6.64-0.16c0-0.09,2.97-0.16,6.64-0.16
						C315.02,95.02,317.99,95.09,317.99,95.18z"/>
				</g>
			</g>
			<g>
				<g>
					<path class="st4" d="M318.18,97.29c0,0.09-2.97,0.16-6.64,0.16c-3.67,0-6.64-0.07-6.64-0.16c0-0.09,2.97-0.16,6.64-0.16
						C315.21,97.13,318.18,97.2,318.18,97.29z"/>
				</g>
			</g>
			<g>
				<g>
					<path class="st4" d="M310.6,102.11c0,0.09-1.32,0.16-2.94,0.16c-1.63,0-2.94-0.07-2.94-0.16c0-0.09,1.32-0.16,2.94-0.16
						C309.29,101.95,310.6,102.02,310.6,102.11z"/>
				</g>
			</g>
			<g>
				<g>
					<path class="st4" d="M317.99,105.62c0,0.09-2.97,0.16-6.64,0.16c-3.67,0-6.64-0.07-6.64-0.16c0-0.09,2.97-0.16,6.64-0.16
						C315.02,105.47,317.99,105.54,317.99,105.62z"/>
				</g>
			</g>
			<g>
				<g>
					<path class="st4" d="M318.18,107.73c0,0.09-2.97,0.16-6.64,0.16c-3.67,0-6.64-0.07-6.64-0.16c0-0.09,2.97-0.16,6.64-0.16
						C315.21,107.58,318.18,107.65,318.18,107.73z"/>
				</g>
			</g>
			<g>
				<g>
					<path class="st4" d="M310.6,112.96c0,0.09-1.32,0.16-2.94,0.16c-1.63,0-2.94-0.07-2.94-0.16c0-0.09,1.32-0.16,2.94-0.16
						C309.29,112.8,310.6,112.87,310.6,112.96z"/>
				</g>
			</g>
			<g>
				<g>
					<path class="st4" d="M317.99,116.47c0,0.09-2.97,0.16-6.64,0.16c-3.67,0-6.64-0.07-6.64-0.16c0-0.09,2.97-0.16,6.64-0.16
						C315.02,116.31,317.99,116.38,317.99,116.47z"/>
				</g>
			</g>
			<g>
				<g>
					<path class="st4" d="M318.18,118.58c0,0.09-2.97,0.16-6.64,0.16c-3.67,0-6.64-0.07-6.64-0.16c0-0.09,2.97-0.16,6.64-0.16
						C315.21,118.42,318.18,118.49,318.18,118.58z"/>
				</g>
			</g>
			<g>
				<g>
					<path class="st4" d="M319.82,86.18c0,0.09-3.14,0.16-7.02,0.16c-3.88,0-7.02-0.07-7.02-0.16c0-0.09,3.14-0.16,7.02-0.16
						C316.68,86.02,319.82,86.09,319.82,86.18z"/>
				</g>
			</g>
			<g>
				<g>
					<path class="st4" d="M312.96,88.2c0,0.09-1.57,0.16-3.51,0.16c-1.94,0-3.51-0.07-3.51-0.16c0-0.09,1.57-0.16,3.51-0.16
						C311.39,88.04,312.96,88.11,312.96,88.2z"/>
				</g>
			</g>
			<g>
				<g>
					<path class="st4" d="M307.97,84.39c0.01,0.03-0.21,0.19-0.66,0.28c-0.22,0.04-0.53,0.03-0.81-0.15
						c-0.27-0.17-0.5-0.48-0.55-0.87c-0.08-0.79,0.61-1.33,1.07-1.34c0.48-0.04,0.72,0.16,0.7,0.18c-0.02,0.05-0.28-0.06-0.66,0.03
						c-0.38,0.06-0.85,0.5-0.8,1.08c0.03,0.28,0.19,0.52,0.39,0.66c0.2,0.14,0.43,0.18,0.63,0.17
						C307.69,84.42,307.96,84.34,307.97,84.39z"/>
				</g>
			</g>
			<g>
				<g>
					<path class="st4" d="M310.37,82.21c0.08,0.04-0.33,1.01-0.9,2.18l0,0.01l-0.13,0.27l-0.15-0.25c-0.66-1.12-1.13-2.06-1.05-2.11
						c0.07-0.04,0.67,0.83,1.32,1.95l-0.28,0.02l0-0.01C309.76,83.09,310.29,82.17,310.37,82.21z"/>
				</g>
			</g>
			<g>
				<g>
					<path class="st5" d="M302.97,85.48"/>
				</g>
			</g>
			<g>
				<g>
					<g>
						<path class="st4" d="M301.98,89.19c-0.01-0.01-0.02-0.24-0.03-0.66c-0.01-0.5-0.02-1.09-0.04-1.79
							c-0.02-1.63-0.04-3.77-0.07-6.31l0.14,0.14c-2.57,0.01-5.56,0.01-8.76,0.02c-0.04,0.03,0.29-0.3,0.16-0.15v0v0v0.01v0.02
							l0,0.04v0.08v0.15v0.3l0,0.59c0,0.39,0,0.78,0,1.17c0,0.77,0,1.53,0,2.26c-0.01,1.46-0.01,2.85-0.02,4.13l-0.13-0.14
							c2.53,0.03,4.68,0.05,6.31,0.07c0.71,0.01,1.3,0.03,1.79,0.04C301.74,89.17,301.97,89.18,301.98,89.19
							c0.01,0.01-0.2,0.02-0.6,0.03c-0.49,0.01-1.07,0.02-1.76,0.04c-1.65,0.02-3.83,0.04-6.39,0.07l-0.13,0l0-0.14
							c0-1.28-0.01-2.67-0.02-4.13c0-0.74,0-1.49,0-2.26c0-0.39,0-0.78,0-1.17l0-0.59l0-0.3v-0.15v-0.08v-0.04v-0.02v-0.01v0v0
							c-0.14,0.14,0.19-0.19,0.16-0.16c3.19,0.01,6.18,0.01,8.76,0.02l0.14,0l0,0.13c-0.03,2.57-0.05,4.74-0.07,6.39
							c-0.01,0.69-0.03,1.28-0.04,1.76C302,88.99,301.99,89.2,301.98,89.19z"/>
					</g>
				</g>
				<g>
					<g>
						<path class="st4" d="M296.77,82.4c0,0,0.16-0.14,0.52-0.21c0.35-0.06,0.93-0.01,1.46,0.39c0.53,0.4,0.91,1.18,0.91,2.04
							c0,0.43-0.06,0.9-0.28,1.33c-0.21,0.44-0.64,0.79-1.13,0.92c-1.01,0.29-2.04-0.27-2.47-1.02c-0.23-0.37-0.33-0.8-0.31-1.19
							c0.01-0.38,0.05-0.74,0.15-1.05c0.19-0.64,0.61-1.03,0.94-1.19c0.33-0.16,0.53-0.17,0.53-0.17c0.01,0.02-0.19,0.06-0.49,0.24
							c-0.3,0.17-0.67,0.55-0.84,1.16c-0.14,0.59-0.25,1.4,0.19,2.1c0.41,0.69,1.34,1.19,2.25,0.92c0.95-0.22,1.3-1.25,1.28-2.04
							c0.01-0.82-0.33-1.55-0.81-1.93c-0.48-0.39-1.02-0.46-1.36-0.43C296.95,82.31,296.78,82.42,296.77,82.4z"/>
					</g>
				</g>
				<g>
					<g>
						<path class="st4" d="M299.54,85.14c-0.01-0.04,0.31-0.15,0.29-0.45c-0.04-0.3-0.38-0.35-0.38-0.39
							c-0.01-0.02,0.08-0.08,0.22-0.04c0.14,0.03,0.33,0.17,0.36,0.41c0.02,0.25-0.15,0.42-0.27,0.48
							C299.63,85.2,299.53,85.17,299.54,85.14z"/>
					</g>
				</g>
				<g>
					<g>
						<path class="st4" d="M295.55,84.65c0.02,0.04-0.27,0.21-0.19,0.51c0.11,0.28,0.44,0.26,0.45,0.3
							c0.01,0.02-0.06,0.09-0.21,0.09c-0.14,0-0.36-0.09-0.44-0.33c-0.07-0.24,0.05-0.44,0.17-0.52
							C295.45,84.61,295.55,84.62,295.55,84.65z"/>
					</g>
				</g>
				<g>
					<g>
						<path class="st4" d="M298.57,85.26c0.07,0-0.14,0.55-0.78,0.64c-0.64,0.07-0.98-0.41-0.92-0.43c0.03-0.04,0.38,0.29,0.89,0.22
							C298.27,85.63,298.52,85.22,298.57,85.26z"/>
					</g>
				</g>
				<g>
					<g>
						<path class="st4" d="M298.96,83.18c0.01,0.02-0.15,0.14-0.46,0.26c-0.15,0.05-0.36,0.1-0.6,0.04
							c-0.22-0.06-0.49-0.23-0.54-0.54l0.18,0.06l-0.02,0.02c-0.37,0.37-0.85,0.53-1.18,0.55c-0.34,0.03-0.54-0.05-0.53-0.07
							c-0.02-0.06,0.87,0.07,1.57-0.62l0.02-0.02l0.15-0.14l0.03,0.2c0.03,0.19,0.21,0.33,0.38,0.38c0.18,0.06,0.36,0.03,0.51,0
							C298.77,83.23,298.95,83.15,298.96,83.18z"/>
					</g>
				</g>
				<g>
					<g>
						<path class="st4" d="M300.84,89.19c-0.03,0.02-0.23-0.37-0.76-0.81c-0.51-0.44-1.42-0.82-2.46-0.78
							c-1.04,0.02-1.94,0.41-2.45,0.86c-0.52,0.44-0.7,0.85-0.73,0.83c-0.01-0.01,0.02-0.11,0.12-0.28
							c0.09-0.17,0.26-0.41,0.52-0.65c0.51-0.5,1.45-0.94,2.54-0.96c1.09-0.04,2.05,0.38,2.56,0.87c0.26,0.24,0.43,0.47,0.53,0.64
							C300.81,89.08,300.85,89.18,300.84,89.19z"/>
					</g>
				</g>
				<g>
					<g>
						<path class="st4" d="M297.66,85.14c-0.02-0.04,0.09-0.11,0.17-0.26l0,0.11c-0.07-0.07-0.15-0.17-0.21-0.28
							c-0.19-0.35-0.15-0.67-0.09-0.67c0.06,0,0.11,0.28,0.27,0.57c0.05,0.1,0.11,0.19,0.16,0.26l0.04,0.07l-0.04,0.05
							C297.83,85.16,297.67,85.18,297.66,85.14z"/>
					</g>
				</g>
				<g>
					<g>
						<path class="st4" d="M298.85,84.37c-0.05,0.03-0.16-0.04-0.28-0.01c-0.12,0.01-0.22,0.11-0.27,0.09
							c-0.06,0-0.02-0.25,0.24-0.3C298.8,84.12,298.9,84.35,298.85,84.37z"/>
					</g>
				</g>
				<g>
					<g>
						<path class="st4" d="M296.78,84.57c-0.04,0.05-0.15,0.02-0.28,0.02c-0.13,0-0.24,0.03-0.28-0.02
							c-0.04-0.04,0.07-0.19,0.28-0.19C296.7,84.38,296.82,84.53,296.78,84.57z"/>
					</g>
				</g>
				<g>
					<g>
						<path class="st4" d="M296.22,87.76c0,0.01-0.11,0.07-0.31,0.18c-0.1,0.05-0.23,0.13-0.4,0.17c-0.18,0.04-0.4-0.01-0.58-0.14
							c-0.18-0.12-0.36-0.32-0.42-0.59c-0.03-0.13-0.02-0.29,0.03-0.42c0.05-0.14,0.08-0.21,0.01-0.31c-0.16-0.19-0.3-0.59-0.14-0.9
							c0.16-0.31,0.46-0.47,0.49-0.74c0.05-0.27-0.05-0.59-0.03-0.91c0.01-0.31,0.07-0.61,0.18-0.87c0.21-0.54,0.64-0.91,1.04-1.07
							c0.84-0.32,1.37,0.05,1.34,0.06c0,0.04-0.52-0.26-1.28,0.08c-0.37,0.16-0.73,0.51-0.92,1c-0.1,0.24-0.15,0.52-0.16,0.81
							c-0.02,0.29,0.09,0.58,0.03,0.94c-0.07,0.39-0.42,0.56-0.51,0.79c-0.11,0.25-0.06,0.48,0.12,0.72
							c0.1,0.15,0.04,0.36-0.01,0.46c-0.04,0.11-0.05,0.22-0.03,0.32c0.04,0.21,0.18,0.39,0.33,0.51c0.32,0.27,0.66,0.11,0.86,0.02
							C296.08,87.78,296.21,87.75,296.22,87.76z"/>
					</g>
				</g>
				<g>
					<g>
						<path class="st4" d="M299.57,87.98c0-0.02,0.13,0.02,0.35,0.04c0.22,0.05,0.52-0.12,0.62-0.5c0.06-0.19,0.03-0.36-0.04-0.61
							c-0.03-0.13,0.01-0.3,0.08-0.41c0.07-0.11,0.12-0.21,0.14-0.33c0.06-0.24,0.02-0.5-0.11-0.73c-0.13-0.23-0.36-0.44-0.53-0.72
							c-0.32-0.58-0.31-1.2-0.52-1.66c-0.19-0.48-0.63-0.71-1-0.8c-0.77-0.15-1.28-0.04-1.28-0.09c0,0,0.49-0.17,1.31-0.05
							c0.4,0.07,0.92,0.33,1.14,0.87c0.24,0.51,0.24,1.13,0.53,1.63c0.15,0.25,0.37,0.46,0.52,0.73c0.16,0.27,0.2,0.6,0.12,0.88
							c-0.07,0.3-0.3,0.47-0.24,0.67c0.05,0.21,0.09,0.48,0.01,0.68c-0.07,0.21-0.19,0.37-0.34,0.47c-0.15,0.1-0.32,0.09-0.43,0.07
							C299.67,88.05,299.57,87.99,299.57,87.98z"/>
					</g>
				</g>
				<g>
					<g>
						<path class="st4" d="M296.96,87.64c-0.06,0.01-0.12-0.2-0.15-0.47c-0.03-0.27,0-0.49,0.06-0.5s0.12,0.2,0.15,0.47
							C297.05,87.41,297.02,87.63,296.96,87.64z"/>
					</g>
				</g>
				<g>
					<g>
						<path class="st4" d="M298.62,86.62c0.06,0.01,0.07,0.23,0.03,0.48c-0.04,0.26-0.12,0.46-0.17,0.45
							c-0.06-0.01-0.07-0.23-0.03-0.48C298.48,86.81,298.56,86.61,298.62,86.62z"/>
					</g>
				</g>
			</g>
		</g>
		<g>
			<g>
				<rect x="166.06" y="76.66" class="st2" width="34.06" height="48.96"/>
			</g>
			<g>
				<g>
					<path class="st4" d="M186.99,91.67c0,0.09-1.32,0.16-2.94,0.16c-1.63,0-2.94-0.07-2.94-0.16c0-0.09,1.32-0.16,2.94-0.16
						C185.68,91.51,186.99,91.58,186.99,91.67z"/>
				</g>
			</g>
			<g>
				<g>
					<g>
						<path class="st4" d="M177.66,92.9c0,0.09-1.85,0.16-4.13,0.16c-2.28,0-4.13-0.07-4.13-0.16c0-0.09,1.85-0.16,4.13-0.16
							C175.81,92.75,177.66,92.82,177.66,92.9z"/>
					</g>
				</g>
				<g>
					<g>
						<path class="st4" d="M177.66,95.07c0,0.09-1.85,0.16-4.13,0.16c-2.28,0-4.13-0.07-4.13-0.16c0-0.09,1.85-0.16,4.13-0.16
							C175.81,94.91,177.66,94.98,177.66,95.07z"/>
					</g>
				</g>
				<g>
					<g>
						<path class="st4" d="M177.66,97.23c0,0.09-1.85,0.16-4.13,0.16c-2.28,0-4.13-0.07-4.13-0.16c0-0.09,1.85-0.16,4.13-0.16
							C175.81,97.07,177.66,97.14,177.66,97.23z"/>
					</g>
				</g>
				<g>
					<g>
						<path class="st4" d="M173.99,99.39c0,0.09-1.03,0.16-2.3,0.16c-1.27,0-2.3-0.07-2.3-0.16c0-0.09,1.03-0.16,2.3-0.16
							C172.97,99.24,173.99,99.31,173.99,99.39z"/>
					</g>
				</g>
			</g>
			<g>
				<g>
					<path class="st4" d="M194.38,95.18c0,0.09-2.97,0.16-6.64,0.16c-3.67,0-6.64-0.07-6.64-0.16c0-0.09,2.97-0.16,6.64-0.16
						C191.41,95.02,194.38,95.09,194.38,95.18z"/>
				</g>
			</g>
			<g>
				<g>
					<path class="st4" d="M194.57,97.29c0,0.09-2.97,0.16-6.64,0.16c-3.67,0-6.64-0.07-6.64-0.16c0-0.09,2.97-0.16,6.64-0.16
						C191.6,97.13,194.57,97.2,194.57,97.29z"/>
				</g>
			</g>
			<g>
				<g>
					<path class="st4" d="M186.99,102.11c0,0.09-1.32,0.16-2.94,0.16c-1.63,0-2.94-0.07-2.94-0.16c0-0.09,1.32-0.16,2.94-0.16
						C185.68,101.95,186.99,102.02,186.99,102.11z"/>
				</g>
			</g>
			<g>
				<g>
					<path class="st4" d="M194.38,105.62c0,0.09-2.97,0.16-6.64,0.16c-3.67,0-6.64-0.07-6.64-0.16c0-0.09,2.97-0.16,6.64-0.16
						C191.41,105.47,194.38,105.54,194.38,105.62z"/>
				</g>
			</g>
			<g>
				<g>
					<path class="st4" d="M194.57,107.73c0,0.09-2.97,0.16-6.64,0.16c-3.67,0-6.64-0.07-6.64-0.16c0-0.09,2.97-0.16,6.64-0.16
						C191.6,107.58,194.57,107.65,194.57,107.73z"/>
				</g>
			</g>
			<g>
				<g>
					<path class="st4" d="M186.99,112.96c0,0.09-1.32,0.16-2.94,0.16c-1.63,0-2.94-0.07-2.94-0.16c0-0.09,1.32-0.16,2.94-0.16
						C185.68,112.8,186.99,112.87,186.99,112.96z"/>
				</g>
			</g>
			<g>
				<g>
					<path class="st4" d="M194.38,116.47c0,0.09-2.97,0.16-6.64,0.16c-3.67,0-6.64-0.07-6.64-0.16c0-0.09,2.97-0.16,6.64-0.16
						C191.41,116.31,194.38,116.38,194.38,116.47z"/>
				</g>
			</g>
			<g>
				<g>
					<path class="st4" d="M194.57,118.58c0,0.09-2.97,0.16-6.64,0.16c-3.67,0-6.64-0.07-6.64-0.16c0-0.09,2.97-0.16,6.64-0.16
						C191.6,118.42,194.57,118.49,194.57,118.58z"/>
				</g>
			</g>
			<g>
				<g>
					<path class="st4" d="M196.21,86.18c0,0.09-3.14,0.16-7.02,0.16c-3.88,0-7.02-0.07-7.02-0.16c0-0.09,3.14-0.16,7.02-0.16
						C193.07,86.02,196.21,86.09,196.21,86.18z"/>
				</g>
			</g>
			<g>
				<g>
					<path class="st4" d="M189.35,88.2c0,0.09-1.57,0.16-3.51,0.16c-1.94,0-3.51-0.07-3.51-0.16c0-0.09,1.57-0.16,3.51-0.16
						C187.77,88.04,189.35,88.11,189.35,88.2z"/>
				</g>
			</g>
			<g>
				<g>
					<path class="st5" d="M179.36,85.48"/>
				</g>
			</g>
			<g>
				<g>
					<g>
						<path class="st4" d="M178.23,89.14c-0.01-0.01-0.02-0.24-0.03-0.66c-0.01-0.5-0.02-1.09-0.04-1.79
							c-0.02-1.63-0.04-3.78-0.07-6.31l0.13,0.14c-2.57,0.01-5.56,0.01-8.76,0.02c-0.04,0.03,0.29-0.3,0.16-0.15v0v0v0.01v0.02v0.04
							v0.08v0.15l0,0.3l0,0.59c0,0.39,0,0.78,0,1.17c0,0.77,0,1.53,0,2.26c-0.01,1.46-0.01,2.85-0.02,4.13L169.47,89
							c2.53,0.03,4.68,0.05,6.31,0.07c0.71,0.01,1.3,0.03,1.79,0.04C177.99,89.12,178.22,89.13,178.23,89.14
							c0.01,0.01-0.2,0.02-0.6,0.03c-0.49,0.01-1.07,0.02-1.76,0.04c-1.65,0.02-3.83,0.04-6.39,0.07l-0.13,0l0-0.14
							c0-1.28-0.01-2.67-0.02-4.13c0-0.74,0-1.49,0-2.26c0-0.39,0-0.78,0-1.17l0-0.59l0-0.3v-0.15v-0.08v-0.04V80.4v-0.01v0v0
							c-0.14,0.14,0.19-0.19,0.16-0.16c3.19,0.01,6.18,0.01,8.76,0.02l0.14,0l0,0.13c-0.03,2.57-0.05,4.74-0.07,6.39
							c-0.01,0.69-0.03,1.28-0.04,1.76C178.25,88.94,178.24,89.15,178.23,89.14z"/>
					</g>
				</g>
				<g>
					<g>
						<path class="st4" d="M173.02,82.35c0,0,0.16-0.14,0.52-0.21c0.35-0.06,0.93-0.01,1.46,0.39c0.53,0.4,0.91,1.18,0.91,2.04
							c0,0.43-0.06,0.89-0.28,1.33c-0.21,0.44-0.64,0.79-1.13,0.92c-1.01,0.29-2.04-0.27-2.47-1.02c-0.23-0.37-0.33-0.8-0.31-1.19
							c0.01-0.38,0.05-0.74,0.15-1.05c0.19-0.64,0.61-1.03,0.94-1.19c0.33-0.16,0.53-0.17,0.53-0.17c0.01,0.02-0.19,0.06-0.49,0.24
							c-0.3,0.17-0.67,0.55-0.84,1.16c-0.14,0.59-0.25,1.4,0.19,2.1c0.41,0.69,1.34,1.19,2.25,0.92c0.95-0.22,1.3-1.25,1.28-2.04
							c0.01-0.82-0.33-1.55-0.81-1.93c-0.48-0.39-1.02-0.46-1.36-0.43C173.2,82.26,173.03,82.37,173.02,82.35z"/>
					</g>
				</g>
				<g>
					<g>
						<path class="st4" d="M175.78,85.09c-0.01-0.04,0.31-0.15,0.29-0.45c-0.04-0.3-0.38-0.35-0.37-0.39
							c-0.01-0.02,0.08-0.08,0.22-0.04c0.14,0.03,0.33,0.17,0.36,0.41c0.02,0.25-0.15,0.42-0.27,0.48
							C175.87,85.15,175.78,85.12,175.78,85.09z"/>
					</g>
				</g>
				<g>
					<g>
						<path class="st4" d="M171.8,84.6c0.02,0.04-0.27,0.21-0.19,0.51c0.11,0.28,0.44,0.26,0.45,0.3c0.01,0.02-0.06,0.09-0.21,0.09
							c-0.14,0-0.36-0.09-0.44-0.33c-0.07-0.24,0.05-0.44,0.17-0.52C171.7,84.56,171.79,84.57,171.8,84.6z"/>
					</g>
				</g>
				<g>
					<g>
						<path class="st4" d="M174.81,85.21c0.07,0-0.14,0.55-0.78,0.64c-0.64,0.07-0.98-0.41-0.92-0.43c0.03-0.04,0.38,0.29,0.89,0.22
							C174.52,85.58,174.77,85.17,174.81,85.21z"/>
					</g>
				</g>
				<g>
					<g>
						<path class="st4" d="M175.21,83.13c0.01,0.02-0.15,0.14-0.46,0.26c-0.15,0.05-0.36,0.1-0.6,0.04
							c-0.22-0.06-0.49-0.23-0.54-0.54l0.18,0.06l-0.03,0.02c-0.37,0.37-0.85,0.53-1.18,0.55c-0.34,0.03-0.54-0.05-0.53-0.07
							c-0.02-0.06,0.87,0.07,1.57-0.62l0.02-0.02l0.15-0.14l0.03,0.2c0.03,0.19,0.21,0.33,0.38,0.38c0.18,0.06,0.36,0.03,0.51,0
							C175.01,83.18,175.2,83.1,175.21,83.13z"/>
					</g>
				</g>
				<g>
					<g>
						<path class="st4" d="M177.09,89.14c-0.03,0.02-0.23-0.37-0.76-0.81c-0.51-0.44-1.42-0.82-2.46-0.78
							c-1.04,0.02-1.94,0.41-2.45,0.86c-0.52,0.44-0.7,0.85-0.73,0.83c-0.01-0.01,0.02-0.11,0.12-0.28
							c0.09-0.17,0.26-0.41,0.52-0.65c0.51-0.5,1.45-0.94,2.54-0.96c1.09-0.04,2.05,0.38,2.56,0.87c0.26,0.24,0.43,0.47,0.53,0.64
							C177.06,89.03,177.1,89.13,177.09,89.14z"/>
					</g>
				</g>
				<g>
					<g>
						<path class="st4" d="M173.91,85.09c-0.02-0.04,0.09-0.11,0.17-0.26l0,0.11c-0.07-0.07-0.15-0.17-0.21-0.28
							c-0.19-0.35-0.15-0.67-0.09-0.67c0.06,0,0.11,0.28,0.27,0.57c0.05,0.1,0.11,0.19,0.16,0.26l0.04,0.07l-0.04,0.05
							C174.08,85.11,173.92,85.12,173.91,85.09z"/>
					</g>
				</g>
				<g>
					<g>
						<path class="st4" d="M175.09,84.32c-0.05,0.03-0.16-0.04-0.28-0.01c-0.12,0.01-0.22,0.11-0.27,0.09
							c-0.06,0-0.02-0.25,0.24-0.3C175.05,84.07,175.15,84.3,175.09,84.32z"/>
					</g>
				</g>
				<g>
					<g>
						<path class="st4" d="M173.03,84.52c-0.04,0.05-0.15,0.02-0.28,0.02c-0.13,0-0.24,0.03-0.28-0.02
							c-0.04-0.04,0.07-0.19,0.28-0.19C172.95,84.33,173.07,84.47,173.03,84.52z"/>
					</g>
				</g>
				<g>
					<g>
						<path class="st4" d="M173.21,87.59c-0.06,0.01-0.12-0.2-0.15-0.47c-0.03-0.27,0-0.49,0.06-0.5c0.06-0.01,0.12,0.2,0.15,0.47
							C173.29,87.36,173.27,87.58,173.21,87.59z"/>
					</g>
				</g>
				<g>
					<g>
						<path class="st4" d="M174.87,86.57c0.06,0.01,0.07,0.23,0.03,0.48c-0.04,0.26-0.12,0.46-0.17,0.45
							c-0.06-0.01-0.07-0.23-0.03-0.48C174.73,86.76,174.81,86.56,174.87,86.57z"/>
					</g>
				</g>
				<g>
					<g>
						<path class="st4" d="M171.62,88.18c-0.06-0.02,0.09-0.61,0.13-1.36c0.05-0.75-0.03-1.35,0.03-1.36
							c0.05-0.01,0.23,0.6,0.18,1.38C171.92,87.61,171.67,88.2,171.62,88.18z"/>
					</g>
				</g>
				<g>
					<g>
						<path class="st4" d="M176.24,88.02c-0.06,0.01-0.2-0.65-0.32-1.48c-0.12-0.83-0.17-1.51-0.11-1.51
							c0.06-0.01,0.2,0.66,0.32,1.49C176.25,87.33,176.3,88.01,176.24,88.02z"/>
					</g>
				</g>
			</g>
		</g>
	</g>
</g>
<g id="Folder">
	<path class="st6" d="M213.68,155.31l2.06,33.42c0.07,1.19,1.06,2.12,2.25,2.12h60.17c1.25,0,2.26-1.01,2.26-2.26v-26.03
		c0-1.25-1.02-2.27-2.27-2.26l-37,0.24c-0.6,0-1.17-0.23-1.6-0.65l-6.43-6.33c-0.42-0.42-0.99-0.65-1.58-0.65h-15.6
		C214.63,152.91,213.6,154.01,213.68,155.31z"/>
	<path class="st7" d="M213.68,155.31l2.06,33.42c0.07,1.19,1.06,2.12,2.25,2.12h60.17c1.25,0,2.26-1.01,2.26-2.26v-26.03
		c0-1.25-1.02-2.27-2.27-2.26l-37,0.24c-0.6,0-1.17-0.23-1.6-0.65l-6.43-6.33c-0.42-0.42-0.99-0.65-1.58-0.65h-15.6
		C214.63,152.91,213.6,154.01,213.68,155.31z"/>
	<g>
		<path class="st6" d="M209.88,169.28l5.02,40.97c0.09,0.73,0.71,1.28,1.44,1.28h64.07c0.76,0,1.39-0.58,1.45-1.34l3.23-40.97
			c0.07-0.84-0.6-1.57-1.45-1.57h-72.31C210.45,167.65,209.77,168.41,209.88,169.28z"/>
	</g>
	<g>
		<path class="st6" d="M130.77,173.65l2.16,28.44c0.08,1.01,0.93,1.79,1.94,1.78l51.24-0.72c1.06-0.01,1.91-0.89,1.9-1.95
			l-0.31-22.16c-0.02-1.07-0.9-1.92-1.96-1.9l-31.51,0.65c-0.51,0.01-1-0.18-1.37-0.53l-5.55-5.32c-0.36-0.35-0.85-0.54-1.36-0.53
			l-13.28,0.19C131.55,171.59,130.69,172.54,130.77,173.65z"/>
		
			<rect x="131.87" y="174.13" transform="matrix(0.9999 -0.0141 0.0141 0.9999 -2.6844 2.281)" class="st1" width="55.99" height="33.46"/>
		<path class="st6" d="M127.22,177.59l4.77,34.83c0.08,0.62,0.62,1.08,1.24,1.07l54.56-0.77c0.65-0.01,1.17-0.51,1.22-1.16
			l2.25-34.93c0.05-0.72-0.53-1.33-1.25-1.32l-61.58,0.87C127.69,176.2,127.12,176.86,127.22,177.59z"/>
	</g>
	<g>
		<path class="st6" d="M312.49,171.23l2.11,27.78c0.08,0.99,0.91,1.75,1.9,1.74l50.05-0.71c1.04-0.01,1.87-0.87,1.85-1.9
			l-0.31-21.65c-0.01-1.04-0.87-1.87-1.92-1.85l-30.78,0.63c-0.5,0.01-0.98-0.18-1.34-0.52l-5.42-5.19
			c-0.36-0.34-0.83-0.53-1.33-0.52l-12.98,0.18C313.25,169.22,312.41,170.15,312.49,171.23z"/>
		<path class="st7" d="M312.49,171.23l2.11,27.78c0.08,0.99,0.91,1.75,1.9,1.74l50.05-0.71c1.04-0.01,1.87-0.87,1.85-1.9
			l-0.31-21.65c-0.01-1.04-0.87-1.87-1.92-1.85l-30.78,0.63c-0.5,0.01-0.98-0.18-1.34-0.52l-5.42-5.19
			c-0.36-0.34-0.83-0.53-1.33-0.52l-12.98,0.18C313.25,169.22,312.41,170.15,312.49,171.23z"/>
		
			<rect x="313.56" y="171.7" transform="matrix(0.9999 -0.0141 0.0141 0.9999 -2.6265 4.8424)" class="st2" width="54.7" height="32.68"/>
		<path class="st6" d="M309.02,175.08l4.66,34.02c0.08,0.6,0.6,1.05,1.21,1.04l53.3-0.75c0.63-0.01,1.15-0.5,1.19-1.13l2.2-34.12
			c0.05-0.7-0.52-1.3-1.22-1.29l-60.16,0.85C309.48,173.72,308.93,174.36,309.02,175.08z"/>
	</g>
</g>
<g id="Character">
	<g>
		<path class="st8" d="M231.38,217.69l-5.36,2.56l-4.93-7.74l2.88-5.98c0.27-0.55,0.57-1.18,0.87-1.89
			c0.36-0.83,0.57-1.72,0.64-2.63c0.08-1.1,0.13-2.56-0.09-3.36c-0.27-1,0.79-1.81,1.51-1.23c0.72,0.58,1.52,3.31,0.98,6.6
			c-0.53,3.29,3.3-0.2,4.72-1.45c1.42-1.25,5.98-4.9,6.7-4.75c1.05,0.21,1.02,1.4-0.42,2.62c-1.46,1.23-5.53,5.16-4.86,5.89
			c0,0,0.01,0,0.03,0c1.71,0.18,3.12,1.45,3.5,3.13c0.37,1.62,0.66,3.86-0.25,4.6C235.59,215.44,231.38,217.69,231.38,217.69z"/>
		<g>
			<g>
				<g>
					<path class="st8" d="M126.31,148.72L126.18,190l17.71,0.84l0.51-10.04c0,0,6.29,1.25,7.91-4.59
						c1.04-3.73,0.78-32.57,0.78-32.57L126.31,148.72z"/>
				</g>
				<g>
					<path class="st4" d="M157.09,147.72c-1.19,2.47-6.87,6.98-6.87,6.98l-2.57,6.88c-2.23-1.74-5.22-1.64-5.79,2.27
						c-0.41,2.83,3.11,3.4,3.11,3.4c-2.05,3.49-3.44,6.31-6.42,9.62c-3.23,3.59-5.04,3.95-8.54,4.01h-3.86c0,0-7.9-6.6-6.34-23.99
						c1.56-17.39,17.19-12.31,20.92-16.66C146.82,133.16,161.08,139.48,157.09,147.72z"/>
				</g>
			</g>
			<g>
				<g>
					<path class="st9" d="M120.7,171.43c0,0,0.17-0.01,0.49,0c0.32-0.02,0.8-0.03,1.4-0.16c1.19-0.24,2.89-0.94,4.53-2.41
						c1.66-1.45,3.12-3.65,4.59-6.15c1.5-2.46,3.14-5.36,5.96-7.31c1.41-0.96,2.99-1.52,4.52-1.93c1.54-0.4,3.05-0.65,4.48-0.92
						c2.85-0.52,5.4-1.32,7.15-2.67c1.75-1.33,2.62-2.99,2.9-4.17c0.29-1.2,0.12-1.89,0.16-1.89c0,0,0.03,0.17,0.05,0.49
						c0,0.32,0.01,0.81-0.14,1.42c-0.26,1.2-1.12,2.9-2.89,4.27c-1.76,1.39-4.35,2.2-7.2,2.74c-2.83,0.58-6.12,0.96-8.92,2.83
						c-2.77,1.91-4.41,4.78-5.92,7.24c-1.48,2.5-2.97,4.71-4.66,6.16c-1.67,1.47-3.4,2.16-4.61,2.37
						C121.38,171.56,120.7,171.43,120.7,171.43z"/>
				</g>
			</g>
		</g>
		<g>
			<g>
				<path class="st8" d="M136.46,351.12l7.2,110.13l16.71-1.85c0,0,0.41-107.36-0.38-107.3
					C159.21,352.16,136.46,351.12,136.46,351.12z"/>
			</g>
			<g>
				<polygon class="st8" points="101.42,350.46 82.62,459.64 97.48,461.9 123.51,355.65 				"/>
			</g>
			<g>
				<polygon class="st4" points="106.97,281.85 81.33,429.04 111.05,435.48 133.61,312.79 138.66,432.16 166.26,432.16 
					161.3,277.34 				"/>
				<path class="st4" d="M111.45,436.08l-30.69-6.65l0.08-0.47l25.7-147.58l0.38-0.03l54.86-4.55l0.02,0.53l4.98,155.34h-28.59
					l-0.02-0.48l-4.86-114.93L111.45,436.08z M81.91,428.65l28.74,6.23l23.27-126.55l5.22,123.33h26.6l-4.93-153.78l-53.43,4.43
					L81.91,428.65z"/>
			</g>
			<g>
				<g>
					<path class="st9" d="M141.45,312.64c0,0.04-0.36,0.09-1.01,0.14c-0.77,0.06-1.69,0.12-2.76,0.2c-2.33,0.16-5.55,0.32-9.08,0.67
						c-3.54,0.35-6.73,0.82-9.04,1.12c-1.07,0.13-1.98,0.25-2.74,0.34c-0.65,0.07-1.01,0.09-1.02,0.06
						c-0.01-0.04,0.35-0.12,0.99-0.26c0.64-0.13,1.57-0.3,2.72-0.5c2.3-0.39,5.49-0.92,9.05-1.28c3.56-0.35,6.78-0.45,9.12-0.52
						c1.17-0.03,2.11-0.04,2.77-0.04C141.09,312.58,141.45,312.6,141.45,312.64z"/>
				</g>
			</g>
			<g>
				<g>
					<path class="st9" d="M161.88,301.3c0.01,0.03-0.24,0.11-0.69,0.18c-0.45,0.08-1.11,0.13-1.93,0.09
						c-1.62-0.06-3.93-0.61-5.99-2.08c-2.06-1.48-3.31-3.49-3.89-5.01c-0.3-0.76-0.45-1.41-0.52-1.86c-0.07-0.45-0.08-0.7-0.04-0.71
						c0.09-0.02,0.25,0.98,0.91,2.42c0.64,1.44,1.89,3.32,3.85,4.73c1.96,1.41,4.14,1.99,5.71,2.14
						C160.87,301.38,161.86,301.21,161.88,301.3z"/>
				</g>
			</g>
			<g>
				<g>
					<path class="st9" d="M166.65,425.99c-0.01,0.14-6.24-0.06-13.92-0.45c-7.68-0.39-13.91-0.82-13.9-0.97
						c0.01-0.14,6.24,0.06,13.93,0.45C160.44,425.41,166.66,425.85,166.65,425.99z"/>
				</g>
			</g>
			<g>
				<g>
					<path class="st9" d="M112.9,426.73c-0.01,0.03-0.43-0.07-1.18-0.29c-0.85-0.25-1.91-0.57-3.16-0.95
						c-2.67-0.8-6.36-1.86-10.48-2.9c-4.12-1.04-7.88-1.85-10.61-2.41c-1.28-0.26-2.36-0.48-3.23-0.66
						c-0.76-0.16-1.18-0.27-1.18-0.3c0.01-0.04,0.44,0,1.21,0.1c0.77,0.1,1.89,0.27,3.27,0.5c2.75,0.47,6.53,1.23,10.66,2.27
						c4.13,1.04,7.82,2.17,10.46,3.06c1.32,0.45,2.39,0.82,3.11,1.11C112.51,426.53,112.91,426.7,112.9,426.73z"/>
				</g>
			</g>
		</g>
		<g>
			<g>
				<g>
					<path class="st9" d="M104.33,291.72h58.15l-2.25-47c-0.37-9.23-0.31-10.34-0.54-18.86c0,0,8.68,10.5,15.51,17.86
						c4.13,4.45,10.66,5.69,16.15,3.1l35.73-24.92l-6.69-17.11l-32.47,19.87c-1.49-0.92-14.13-18.95-22.86-27.76
						c-5.59-5.63-13.13-8.88-21.06-9.11c-6-0.17-13.25,0.1-19.72,0.79c-9.84,1.05-17.54,8.95-18.36,18.81
						c-0.63,7.55-0.12,16.31-0.12,31.19L104.33,291.72z"/>
				</g>
			</g>
			<g>
				<path class="st9" d="M113.68,192.88c-5.49,2.43-28.39,31.77-30,50.83c-1.21,14.2,26.43,12.66,26.43,12.66s1.88-58.28,1.06-57.46
					"/>
			</g>
			<g>
				<g>
					<path class="st4" d="M108.08,197.85c0,0,0,0.21-0.03,0.61c-0.04,0.45-0.08,1.03-0.14,1.74c-0.12,1.51-0.27,3.71-0.42,6.42
						c-0.31,5.42-0.57,12.92-0.83,21.21c-0.26,8.29-0.49,15.79-0.77,21.22c-0.13,2.71-0.27,4.91-0.39,6.42
						c-0.06,0.71-0.11,1.29-0.14,1.74c-0.04,0.4-0.06,0.61-0.06,0.61s0-0.21,0.02-0.61c0.03-0.46,0.06-1.03,0.11-1.75
						c0.08-1.59,0.19-3.76,0.32-6.42c0.24-5.43,0.45-12.93,0.71-21.22c0.26-8.28,0.54-15.79,0.89-21.21
						c0.16-2.71,0.34-4.9,0.49-6.42c0.07-0.71,0.13-1.29,0.18-1.74C108.05,198.06,108.08,197.85,108.08,197.85z"/>
				</g>
			</g>
			<g>
				<g>
					<path class="st4" d="M105.82,235.24c0.02,0.02-0.27,0.44-0.78,1.09c-0.51,0.65-1.24,1.54-2.09,2.48
						c-0.85,0.94-1.66,1.76-2.25,2.33c-0.6,0.57-0.99,0.91-1.01,0.89c-0.02-0.02,0.33-0.39,0.9-0.99c0.57-0.6,1.36-1.43,2.2-2.36
						c0.85-0.94,1.59-1.8,2.13-2.43C105.46,235.61,105.8,235.22,105.82,235.24z"/>
				</g>
			</g>
			<g>
				<g>
					<path class="st4" d="M186.57,230.42c-0.03-0.01,0.02-0.33,0.12-0.84c0.1-0.52,0.26-1.23,0.44-2.01
						c0.18-0.78,0.36-1.49,0.5-1.99c0.14-0.51,0.24-0.82,0.26-0.81c0.03,0.01-0.02,0.33-0.12,0.85c-0.1,0.52-0.25,1.22-0.44,2
						c-0.18,0.78-0.36,1.48-0.5,1.99C186.7,230.12,186.6,230.43,186.57,230.42z"/>
				</g>
			</g>
			<g>
				<g>
					<path class="st4" d="M189.83,230.92c-0.06,0.01-0.43-1.43-0.84-3.21c-0.41-1.79-0.69-3.25-0.64-3.26
						c0.06-0.01,0.43,1.43,0.84,3.21C189.6,229.45,189.88,230.91,189.83,230.92z"/>
				</g>
			</g>
			<g>
				<g>
					<path class="st4" d="M161.19,227.37c0,0-0.12-0.1-0.34-0.3c-0.26-0.25-0.57-0.55-0.93-0.9c-0.81-0.79-1.97-1.94-3.36-3.41
						c-1.38-1.47-2.99-3.27-4.56-5.44c-1.57-2.16-3.09-4.72-4.15-7.63c-1.07-2.9-1.53-5.88-1.37-8.56c0.12-2.67,0.63-5.08,1.54-6.91
						c0.89-1.84,2.11-3.02,3.01-3.69c0.46-0.33,0.82-0.58,1.09-0.72c0.26-0.15,0.4-0.22,0.4-0.22c0.02,0.03-0.55,0.3-1.44,1
						c-0.88,0.69-2.06,1.87-2.93,3.69c-0.88,1.81-1.37,4.2-1.48,6.85c-0.15,2.66,0.31,5.6,1.37,8.48c2.14,5.8,5.93,10.09,8.63,13.04
						c1.37,1.48,2.52,2.64,3.31,3.45c0.36,0.37,0.66,0.68,0.91,0.93C161.09,227.25,161.19,227.37,161.19,227.37z"/>
				</g>
			</g>
			<g>
				<g>
					<path class="st4" d="M165.34,197.51c0,0.14-12.57,0.26-28.06,0.26c-15.5,0-28.06-0.12-28.06-0.26s12.56-0.26,28.06-0.26
						C152.78,197.25,165.34,197.36,165.34,197.51z"/>
				</g>
			</g>
			<g>
				<g>
					<path class="st4" d="M172.25,205.65c0,0.14-15.62,0.26-34.88,0.26c-19.27,0-34.89-0.12-34.89-0.26s15.62-0.26,34.89-0.26
						C156.63,205.39,172.25,205.5,172.25,205.65z"/>
				</g>
			</g>
			<g>
				<g>
					<path class="st4" d="M180.82,214.07c0,0.14-18.79,0.26-41.97,0.26c-23.19,0-41.98-0.12-41.98-0.26
						c0-0.14,18.79-0.26,41.98-0.26C162.02,213.81,180.82,213.93,180.82,214.07z"/>
				</g>
			</g>
			<g>
				<g>
					<path class="st4" d="M186.71,223.06c0,0.14-21.5,0.26-48.01,0.26c-26.52,0-48.01-0.12-48.01-0.26c0-0.14,21.49-0.26,48.01-0.26
						C165.21,222.8,186.71,222.91,186.71,223.06z"/>
				</g>
			</g>
			<g>
				<g>
					<path class="st4" d="M159.87,233.45c0,0.02-0.26,0.04-0.75,0.05c-0.54,0.01-1.26,0.03-2.15,0.05
						c-1.93,0.02-4.62,0.05-7.92,0.08c-6.74,0.02-15.96,0.05-26.14,0.08c-10.19-0.03-19.41-0.06-26.15-0.08
						c-3.3-0.03-6-0.06-7.92-0.08c-0.9-0.02-1.61-0.04-2.15-0.05c-0.49-0.02-0.75-0.03-0.75-0.05c0-0.02,0.26-0.04,0.75-0.05
						c0.54-0.01,1.26-0.03,2.15-0.05c1.93-0.02,4.62-0.05,7.92-0.08c6.74-0.02,15.96-0.05,26.15-0.08
						c10.18,0.03,19.4,0.06,26.14,0.08c3.3,0.03,6,0.06,7.92,0.08c0.9,0.02,1.61,0.04,2.15,0.05
						C159.61,233.41,159.87,233.43,159.87,233.45z"/>
				</g>
			</g>
			<g>
				<g>
					<path class="st4" d="M210.58,234.01c0,0.14-9.93,0.26-22.18,0.26c-12.25,0-22.18-0.12-22.18-0.26c0-0.14,9.93-0.26,22.18-0.26
						C200.65,233.75,210.58,233.86,210.58,234.01z"/>
				</g>
			</g>
			<g>
				<g>
					<path class="st4" d="M196.42,243.27c0,0.14-4.81,0.26-10.75,0.26c-5.94,0-10.75-0.12-10.75-0.26c0-0.14,4.81-0.26,10.75-0.26
						C191.6,243.01,196.42,243.13,196.42,243.27z"/>
				</g>
			</g>
			<g>
				<g>
					<path class="st4" d="M224.06,223.9c0,0.14-7.35,0.26-16.42,0.26c-9.07,0-16.43-0.12-16.43-0.26s7.35-0.26,16.43-0.26
						C216.7,223.64,224.06,223.75,224.06,223.9z"/>
				</g>
			</g>
			<g>
				<g>
					<path class="st4" d="M160.55,244.33c0,0.14-17.31,0.26-38.65,0.26c-21.35,0-38.65-0.12-38.65-0.26c0-0.14,17.3-0.26,38.65-0.26
						C143.24,244.07,160.55,244.19,160.55,244.33z"/>
				</g>
			</g>
			<g>
				<g>
					<path class="st4" d="M161.19,256.41c0,0.14-12.62,0.26-28.18,0.26c-15.57,0-28.19-0.12-28.19-0.26
						c0-0.14,12.62-0.26,28.19-0.26C148.57,256.15,161.19,256.27,161.19,256.41z"/>
				</g>
			</g>
			<g>
				<g>
					<path class="st4" d="M161.19,266.15c0,0.14-12.62,0.26-28.18,0.26c-15.57,0-28.19-0.12-28.19-0.26
						c0-0.14,12.62-0.26,28.19-0.26C148.57,265.89,161.19,266.01,161.19,266.15z"/>
				</g>
			</g>
			<g>
				<g>
					<path class="st4" d="M161.19,277.34c0,0.14-12.62,0.26-28.18,0.26c-15.57,0-28.19-0.12-28.19-0.26s12.62-0.26,28.19-0.26
						C148.57,277.08,161.19,277.19,161.19,277.34z"/>
				</g>
			</g>
			<g>
				<g>
					<path class="st4" d="M224.2,216.91c0,0.14-5.15,0.26-11.51,0.26c-6.36,0-11.51-0.12-11.51-0.26s5.15-0.26,11.51-0.26
						C219.05,216.65,224.2,216.77,224.2,216.91z"/>
				</g>
			</g>
		</g>
		<g>
			<polygon class="st6" points="82.91,456.41 80.39,466.63 97.77,468.59 98.4,458.46 			"/>
			<g>
				<path class="st4" d="M90.76,456.91c0.14,0.02-0.11,2.12-0.57,4.69c-0.46,2.57-0.95,4.64-1.09,4.61
					c-0.14-0.02,0.11-2.12,0.57-4.69C90.13,458.96,90.62,456.89,90.76,456.91z"/>
			</g>
			<g>
				<path class="st4" d="M97.84,467.47c-0.02,0.07-0.97-0.06-2.52-0.29c-1.73-0.26-3.77-0.56-6.03-0.89
					c-2.36-0.36-4.48-0.72-6.02-1.03c-1.53-0.31-2.46-0.56-2.45-0.62c0.02-0.07,0.97,0.06,2.52,0.29c1.73,0.26,3.77,0.56,6.03,0.89
					c2.36,0.36,4.48,0.72,6.01,1.03C96.92,467.16,97.86,467.41,97.84,467.47z"/>
			</g>
		</g>
		<g>
			<g>
				<g>
					<g>
						<g>
							<path class="st6" d="M162.4,460.93l-0.06-2.01l-18.95,0.47l0.12,6.64l1.17,0.05c5.21,0.17,26.51,0.51,29.97-0.63
								C178.51,464.18,162.4,460.93,162.4,460.93z"/>
						</g>
					</g>
					<g class="st7">
						<g>
							<path class="st3" d="M150.35,465.72c-0.3-1.57-1.21-3.01-2.5-3.97c-1.28-0.95-2.85-1.44-4.44-1.27l0.12,5.27L150.35,465.72z"
								/>
						</g>
					</g>
				</g>
				<g class="st7">
					<g>
						<path class="st3" d="M170.28,462.8c0,0,5.65,1.49,4.97,2.43c-0.68,0.94-22.22,1.41-31.74,0.79l0.02-0.42l25.13-0.34
							C168.66,465.27,169.18,462.87,170.28,462.8z"/>
					</g>
				</g>
				<g>
					<g>
						<g>
							<path class="st4" d="M143.24,465.6c0,0.01,0.11,0.02,0.32,0.03c0.28,0.01,0.59,0.02,0.93,0.04c0.93,0.02,2.08,0.04,3.43,0.07
								c2.9,0.04,6.9,0.04,11.33-0.05c4.42-0.09,8.43-0.27,11.32-0.43c1.35-0.09,2.49-0.16,3.43-0.22c0.35-0.03,0.65-0.05,0.93-0.08
								c0.21-0.02,0.32-0.03,0.32-0.04c0-0.01-0.11-0.01-0.33,0c-0.28,0.01-0.59,0.02-0.93,0.03c-0.93,0.04-2.08,0.09-3.43,0.14
								c-2.89,0.12-6.9,0.27-11.32,0.36c-4.42,0.09-8.42,0.12-11.32,0.12c-1.35,0-2.5,0-3.43,0c-0.35,0-0.65,0.01-0.93,0.01
								C143.35,465.59,143.24,465.59,143.24,465.6z"/>
						</g>
					</g>
				</g>
				<g>
					<g>
						<g>
							<path class="st4" d="M168.66,465.56c0.07,0.01,0.11-0.81,0.6-1.65c0.48-0.85,1.18-1.28,1.14-1.34
								c-0.01-0.06-0.82,0.32-1.34,1.22C168.54,464.69,168.61,465.58,168.66,465.56z"/>
						</g>
					</g>
				</g>
				<g>
					<g>
						<g>
							<path class="st4" d="M163.04,462.86c0.05,0.03,0.31-0.3,0.58-0.74s0.44-0.82,0.38-0.86c-0.05-0.03-0.31,0.3-0.58,0.74
								C163.15,462.44,162.98,462.83,163.04,462.86z"/>
						</g>
					</g>
				</g>
				<g>
					<g>
						<g>
							<path class="st4" d="M161.49,462.08c0.04,0.05,0.34-0.16,0.66-0.46c0.32-0.3,0.54-0.58,0.5-0.63
								c-0.04-0.05-0.34,0.16-0.66,0.46C161.67,461.76,161.45,462.04,161.49,462.08z"/>
						</g>
					</g>
				</g>
				<g>
					<g>
						<g>
							<path class="st4" d="M160.49,460.33c0,0.06,0.44,0.11,0.99,0.1c0.54-0.01,0.99-0.06,0.98-0.13c0-0.06-0.44-0.11-0.99-0.1
								C160.93,460.21,160.48,460.26,160.49,460.33z"/>
						</g>
					</g>
				</g>
				<g>
					<g>
						<g>
							<path class="st4" d="M160.13,459.08c-0.02,0.06,0.46,0.26,1.11,0.3c0.64,0.04,1.14-0.12,1.13-0.18
								c-0.01-0.07-0.51-0.02-1.12-0.05C160.64,459.11,160.14,459.01,160.13,459.08z"/>
						</g>
					</g>
				</g>
				<g>
					<g>
						<g>
							<path class="st4" d="M163.64,461.2c0,0.03,0.47,0.07,1.21-0.03c0.37-0.05,0.81-0.15,1.28-0.31c0.23-0.09,0.48-0.16,0.73-0.32
								c0.12-0.08,0.25-0.2,0.29-0.38c0.05-0.18-0.06-0.38-0.19-0.48c-1.17-0.57-2.32,0.1-2.73,0.71c-0.23,0.31-0.33,0.61-0.38,0.82
								c-0.04,0.21-0.04,0.33-0.02,0.33c0.04,0.01,0.07-0.48,0.53-1.05c0.23-0.28,0.57-0.55,1.02-0.7c0.43-0.14,1.03-0.18,1.45,0.07
								c0.2,0.14,0.13,0.37-0.09,0.5c-0.2,0.13-0.45,0.22-0.68,0.31c-0.46,0.17-0.88,0.28-1.24,0.35
								C164.1,461.15,163.64,461.16,163.64,461.2z"/>
						</g>
					</g>
				</g>
				<g>
					<g>
						<g>
							<path class="st4" d="M163.95,461.25c0.02,0.01,0.19-0.3,0.12-0.84c-0.04-0.27-0.14-0.58-0.35-0.88
								c-0.22-0.26-0.5-0.63-1.02-0.6c-0.28,0.04-0.41,0.37-0.36,0.57c0.03,0.21,0.13,0.39,0.22,0.54c0.19,0.3,0.4,0.54,0.59,0.72
								c0.39,0.36,0.69,0.5,0.7,0.48c0.02-0.03-0.25-0.21-0.59-0.59c-0.17-0.19-0.36-0.43-0.52-0.72c-0.17-0.25-0.3-0.71,0.01-0.77
								c0.3-0.04,0.62,0.26,0.81,0.5c0.2,0.26,0.31,0.54,0.36,0.78C164.02,460.93,163.91,461.24,163.95,461.25z"/>
						</g>
					</g>
				</g>
				<g>
					<g>
						<g>
							<path class="st4" d="M143.51,460.43c0.01,0.04,0.54-0.06,1.39,0.02c0.85,0.08,2.03,0.4,3.07,1.19
								c1.04,0.79,1.66,1.85,1.96,2.64c0.31,0.8,0.35,1.35,0.39,1.34c0.01,0,0.02-0.14-0.01-0.38c-0.02-0.24-0.09-0.59-0.23-1.01
								c-0.27-0.83-0.89-1.94-1.97-2.77c-1.08-0.82-2.32-1.13-3.19-1.17c-0.44-0.02-0.8,0.01-1.04,0.05
								C143.64,460.38,143.51,460.42,143.51,460.43z"/>
						</g>
					</g>
				</g>
				<g>
					<g>
						<g>
							<path class="st4" d="M152.68,463.83c-0.01,0.06,1.23,0.23,2.76,0.21c1.53-0.02,2.76-0.22,2.75-0.28
								c-0.01-0.07-1.24,0.04-2.76,0.05C153.92,463.84,152.69,463.77,152.68,463.83z"/>
						</g>
					</g>
				</g>
				<g>
					<g>
						<g>
							<path class="st4" d="M148.99,463.91c-0.05,0.05,0.11,0.26,0.24,0.54c0.14,0.28,0.21,0.53,0.27,0.52
								c0.06,0,0.09-0.3-0.06-0.62C149.28,464.03,149.03,463.86,148.99,463.91z"/>
						</g>
					</g>
				</g>
				<g>
					<g>
						<g>
							<path class="st4" d="M147.55,462.2c-0.04,0.05,0.08,0.24,0.28,0.43c0.2,0.19,0.4,0.31,0.44,0.27
								c0.04-0.05-0.08-0.24-0.28-0.43C147.8,462.28,147.6,462.16,147.55,462.2z"/>
						</g>
					</g>
				</g>
				<g>
					<g>
						<g>
							<path class="st4" d="M145.54,461.46c0.01,0.06,0.27,0.06,0.54,0.15c0.28,0.08,0.48,0.23,0.53,0.19
								c0.05-0.04-0.11-0.3-0.46-0.41C145.81,461.28,145.52,461.4,145.54,461.46z"/>
						</g>
					</g>
				</g>
				<g>
					<g>
						<g>
							<path class="st4" d="M144.12,461.11c-0.02,0.06,0.09,0.15,0.25,0.21c0.16,0.06,0.3,0.06,0.32,0
								c0.02-0.06-0.09-0.15-0.25-0.21C144.28,461.05,144.14,461.05,144.12,461.11z"/>
						</g>
					</g>
				</g>
			</g>
		</g>
	</g>
</g>
</svg>
