<svg xmlns="http://www.w3.org/2000/svg" viewBox="0 0 595.28 841.89"><defs><style>.cls-1,.cls-22{fill:#0c1f39;}.cls-2,.cls-20{fill:#ed5535;}.cls-21,.cls-3{fill:#521e4e;}.cls-19,.cls-4{fill:#cf2c3b;}.cls-5{fill:#7a1633;}.cls-6{font-size:34.53px;}.cls-23,.cls-6,.cls-9{fill:#231f20;font-family:MyriadPro-Regular, Myriad Pro;}.cls-7{letter-spacing:0em;}.cls-8{letter-spacing:0em;}.cls-9{font-size:12px;}.cls-10{letter-spacing:0em;}.cls-11{letter-spacing:-0.08em;}.cls-12{letter-spacing:0.01em;}.cls-13{letter-spacing:0em;}.cls-14{letter-spacing:0em;}.cls-15{letter-spacing:-0.01em;}.cls-16{letter-spacing:0.01em;}.cls-17{letter-spacing:-0.01em;}.cls-18,.cls-24{fill:none;stroke-miterlimit:10;}.cls-18{stroke:#ed5535;stroke-width:0.75px;}.cls-19,.cls-20,.cls-21,.cls-22{opacity:0.92;}.cls-23{font-size:37.57px;}.cls-24{stroke:#ec5635;}</style></defs><title>Asset 1</title><g id="Layer_2" data-name="Layer 2"><g id="Layer_2-2" data-name="Layer 2"><polygon class="cls-1" points="423.94 757.15 504.87 841.89 512.79 841.89 423.94 757.15"/><polygon class="cls-2" points="0 65.23 201.64 142.17 349.72 0 0 0 0 65.23"/><polygon points="349.72 0 201.64 142.17 364.02 0 349.72 0"/><polygon class="cls-3" points="364.02 0 268.09 83.99 595.28 0 364.02 0"/><polygon points="261.48 89.78 347.35 63.65 268.09 83.99 261.48 89.78"/><polygon class="cls-4" points="201.64 142.17 261.48 89.78 347.35 63.65 201.64 142.17"/><polygon class="cls-4" points="0 779.79 202.66 700.81 348.7 841.89 0 841.89 0 779.79"/><polygon class="cls-5" points="202.66 700.81 253.75 750.16 348.7 779.11 202.66 700.81"/><polygon class="cls-1" points="253.75 750.16 349.72 841.89 363.77 841.89 270.32 759.7 348.7 779.11 253.75 750.16"/><polygon class="cls-3" points="270.32 759.7 363.77 841.89 504.96 841.89 476.02 812.13 380.17 787.7 270.32 759.7"/><polygon class="cls-1" points="471.57 807.06 380.17 787.7 476.71 812.84 471.57 807.06"/><polygon class="cls-2" points="425.54 757.15 595.28 796.03 595.28 841.89 513.07 841.89 425.54 757.15"/><polygon class="cls-4" points="380.17 787.7 424.96 757.15 470.92 806.51 380.17 787.7"/><text class="cls-6" transform="translate(227 191.94)">N<tspan class="cls-7" x="22.72" y="0">A</tspan><tspan class="cls-8" x="43.71" y="0">ME</tspan></text><path class="cls-2" d="M226.32,226.61H534a1.88,1.88,0,0,0,0-3.75H226.32a1.88,1.88,0,0,0,0,3.75Z"/><text class="cls-9" transform="translate(228.92 251.65)">EXPERIENCE</text><text class="cls-9" transform="translate(226.32 420.94)">EDU<tspan class="cls-10" x="21.66" y="0">C</tspan><tspan class="cls-11" x="28.67" y="0">A</tspan><tspan x="35.09" y="0">TION</tspan></text><text class="cls-9" transform="translate(228.92 504.54)">E<tspan class="cls-12" x="5.9" y="0">X</tspan><tspan class="cls-13" x="12.85" y="0">T</tspan><tspan class="cls-14" x="18.82" y="0">R</tspan><tspan class="cls-13" x="25.33" y="0">A CURRICULAR</tspan></text><text class="cls-9" transform="translate(228.92 580.5)">SKILLS</text><text class="cls-9" transform="translate(226.32 656.46)"><tspan class="cls-15">A</tspan><tspan x="7.16" y="0">CHI</tspan><tspan class="cls-16" x="24.82" y="0">E</tspan><tspan x="30.83" y="0">VEMEN</tspan><tspan class="cls-17" x="66.88" y="0">T</tspan><tspan x="72.77" y="0">S</tspan></text><line class="cls-18" x1="227" y1="423.7" x2="286.4" y2="423.02"/><line class="cls-18" x1="225.09" y1="256.74" x2="289.37" y2="256"/><line class="cls-18" x1="230.4" y1="507.96" x2="328.27" y2="507.96"/><line class="cls-18" x1="228.92" y1="585.06" x2="261.55" y2="585.06"/><line class="cls-18" x1="226.2" y1="662.16" x2="304.79" y2="662.16"/><path class="cls-19" d="M0,384.41H139.82a16.87,16.87,0,0,1,16.87,16.87v0A19.67,19.67,0,0,1,137,420.94H0a0,0,0,0,1,0,0V384.41A0,0,0,0,1,0,384.41Z"/><path class="cls-20" d="M0,443.72H139.82a16.87,16.87,0,0,1,16.87,16.87v0A19.67,19.67,0,0,1,137,480.26H0a0,0,0,0,1,0,0V443.72a0,0,0,0,1,0,0Z"/><path class="cls-21" d="M0,505.26H139.82a16.87,16.87,0,0,1,16.87,16.87v0A19.67,19.67,0,0,1,137,541.8H0a0,0,0,0,1,0,0V505.26A0,0,0,0,1,0,505.26Z"/><path class="cls-22" d="M0,562.23H139.82a16.87,16.87,0,0,1,16.87,16.87v0A19.67,19.67,0,0,1,137,598.77H0a0,0,0,0,1,0,0V562.23A0,0,0,0,1,0,562.23Z"/><text class="cls-23" transform="translate(14.38 361.63)">INFO</text><circle class="cls-24" cx="88.42" cy="217.9" r="59.72"/></g></g></svg>