<?xml version="1.0" encoding="utf-8"?>
<!-- Generator: Adobe Illustrator 23.0.2, SVG Export Plug-In . SVG Version: 6.00 Build 0)  -->
<svg version="1.1" id="Layer_1" xmlns="http://www.w3.org/2000/svg" xmlns:xlink="http://www.w3.org/1999/xlink" x="0px" y="0px"
	 viewBox="0 0 595.28 841.89" style="enable-background:new 0 0 595.28 841.89;" xml:space="preserve">
<style type="text/css">
	.st0{opacity:0.4;fill:#CED4D4;}
	.st1{opacity:0.4;fill:#B2B9BA;}
	.st2{fill:#5EC5C0;}
	.st3{opacity:0.4;fill:#BDC7C9;stroke:#BCCBCB;stroke-width:3;stroke-miterlimit:10;}
	.st4{opacity:0.4;fill:#FFFFFF;}
	.st5{stroke:#000000;stroke-width:0.5;stroke-miterlimit:10;}
	.st6{font-family:'SegoeUISymbol';}
	.st7{font-size:15.7385px;}
	.st8{fill:#B2B9BA;}
	.st9{fill:#D8D8D8;}
	.st10{font-size:20.5464px;}
	.st11{font-size:18.5676px;}
	.st12{font-size:18.9119px;}
	.st13{stroke:#000000;stroke-width:2;stroke-miterlimit:10;}
	.st14{stroke:#000000;stroke-width:0.25;stroke-miterlimit:10;}
	.st15{fill:#FFFFFF;stroke:#000000;stroke-width:0.25;stroke-miterlimit:10;}
</style>
<rect x="24.19" y="127.62" class="st0" width="347.89" height="682.69"/>
<rect x="372.08" y="127.62" class="st1" width="199.01" height="682.69"/>
<rect x="24.19" y="25.73" class="st2" width="546.89" height="101.88"/>
<line class="st3" x1="380.75" y1="794.38" x2="557.67" y2="794.38"/>
<line class="st3" x1="383.12" y1="267.45" x2="560.04" y2="267.45"/>
<line class="st3" x1="45.2" y1="365.46" x2="351.07" y2="363.04"/>
<line class="st3" x1="45.2" y1="648.06" x2="351.07" y2="645.63"/>
<line class="st3" x1="386.45" y1="663.45" x2="563.37" y2="663.45"/>
<line class="st3" x1="383.12" y1="420.98" x2="560.04" y2="420.98"/>
<rect x="387.51" y="144.89" class="st4" width="165.45" height="103.91"/>
<rect x="388.86" y="296.55" class="st4" width="165.45" height="103.91"/>
<rect x="387.51" y="441.06" class="st4" width="165.45" height="205.28"/>
<rect x="388.86" y="679.82" class="st4" width="165.45" height="103.91"/>
<text transform="matrix(1.1476 0 0 1 394.4063 314.0469)" class="st5 st6 st7">Skills</text>
<text transform="matrix(1.1476 0 0 1 394.4063 164.4299)" class="st5 st6 st7">INFO</text>
<text transform="matrix(1.1476 0 0 1 399.0851 459.0681)" class="st5 st6 st7">EDUCATION</text>
<circle class="st8" cx="404.79" cy="336.47" r="5.7"/>
<circle class="st8" cx="404.79" cy="354.26" r="5.7"/>
<circle class="st8" cx="409.04" cy="479.6" r="5.7"/>
<circle class="st8" cx="404.79" cy="373.62" r="5.7"/>
<path class="st8" d="M500.36,341.4h-76.94c-2.71,0-4.94-2.22-4.94-4.94l0,0c0-2.71,2.22-4.94,4.94-4.94h76.94
	c2.71,0,4.94,2.22,4.94,4.94l0,0C505.3,339.18,503.08,341.4,500.36,341.4z"/>
<path class="st8" d="M510.06,484.54h-82.38c-2.71,0-4.94-2.22-4.94-4.94v0c0-2.71,2.22-4.94,4.94-4.94h82.38
	c2.71,0,4.94,2.22,4.94,4.94v0C515,482.31,512.78,484.54,510.06,484.54z"/>
<path class="st8" d="M507.34,359.98h-82.38c-2.71,0-4.94-2.22-4.94-4.94v0c0-2.71,2.22-4.94,4.94-4.94h82.38
	c2.71,0,4.94,2.22,4.94,4.94v0C512.28,357.76,510.06,359.98,507.34,359.98z"/>
<path class="st8" d="M516.7,378.55h-94.98c-2.71,0-4.94-2.22-4.94-4.94v0c0-2.71,2.22-4.94,4.94-4.94h94.98
	c2.71,0,4.94,2.22,4.94,4.94v0C521.64,376.33,519.42,378.55,516.7,378.55z"/>
<g>
	<ellipse class="st8" cx="410.06" cy="499.02" rx="5.7" ry="5.61"/>
	<ellipse class="st8" cx="410.06" cy="517.3" rx="5.7" ry="5.61"/>
	<ellipse class="st8" cx="410.06" cy="535.58" rx="5.7" ry="5.61"/>
	<path class="st8" d="M505.72,503.87h-77.09c-2.67,0-4.86-2.19-4.86-4.86l0,0c0-2.67,2.19-4.86,4.86-4.86h77.09
		c2.67,0,4.86,2.19,4.86,4.86l0,0C510.57,501.69,508.39,503.87,505.72,503.87z"/>
	<path class="st8" d="M511.16,522.16h-82.54c-2.67,0-4.86-2.19-4.86-4.86l0,0c0-2.67,2.19-4.86,4.86-4.86h82.54
		c2.67,0,4.86,2.19,4.86,4.86l0,0C516.02,519.97,513.84,522.16,511.16,522.16z"/>
	<path class="st8" d="M522.06,540.44h-95.13c-2.67,0-4.86-2.19-4.86-4.86v0c0-2.67,2.19-4.86,4.86-4.86h95.13
		c2.67,0,4.86,2.19,4.86,4.86v0C526.91,538.25,524.73,540.44,522.06,540.44z"/>
</g>
<g>
	<circle class="st8" cx="409.38" cy="180.27" r="5.7"/>
	<circle class="st8" cx="409.38" cy="198.85" r="5.7"/>
	<circle class="st8" cx="409.38" cy="217.42" r="5.7"/>
	<path class="st8" d="M504.96,185.21h-76.94c-2.71,0-4.94-2.22-4.94-4.94v0c0-2.71,2.22-4.94,4.94-4.94h76.94
		c2.71,0,4.94,2.22,4.94,4.94v0C509.89,182.99,507.67,185.21,504.96,185.21z"/>
	<path class="st8" d="M510.4,203.78h-82.38c-2.71,0-4.94-2.22-4.94-4.94l0,0c0-2.71,2.22-4.94,4.94-4.94h82.38
		c2.71,0,4.94,2.22,4.94,4.94l0,0C515.34,201.56,513.12,203.78,510.4,203.78z"/>
	<path class="st8" d="M521.3,222.36h-94.98c-2.71,0-4.94-2.22-4.94-4.94v0c0-2.71,2.22-4.94,4.94-4.94h94.98
		c2.71,0,4.94,2.22,4.94,4.94v0C526.23,220.14,524.01,222.36,521.3,222.36z"/>
</g>
<g>
	<rect x="388.86" y="679.82" class="st4" width="165.45" height="103.91"/>
	<text transform="matrix(1.1476 0 0 1 394.4064 697.1843)" class="st5 st6 st7">LANGUAGES</text>
	<path class="st8" d="M460.7,727.12h-58.96c-2.71,0-4.94-2.22-4.94-4.94l0,0c0-2.71,2.22-4.94,4.94-4.94h58.96
		c2.71,0,4.94,2.22,4.94,4.94l0,0C465.64,724.9,463.42,727.12,460.7,727.12z"/>
	<path class="st8" d="M460.7,743.41h-58.96c-2.71,0-4.94-2.22-4.94-4.94v0c0-2.71,2.22-4.94,4.94-4.94h58.96
		c2.71,0,4.94,2.22,4.94,4.94v0C465.64,741.19,463.42,743.41,460.7,743.41z"/>
	<path class="st8" d="M460.7,759.69h-58.96c-2.71,0-4.94-2.22-4.94-4.94l0,0c0-2.71,2.22-4.94,4.94-4.94h58.96
		c2.71,0,4.94,2.22,4.94,4.94l0,0C465.64,757.47,463.42,759.69,460.7,759.69z"/>
	<g>
		<polygon class="st5" points="495.1,716.85 496.83,720.37 500.71,720.93 497.9,723.66 498.56,727.52 495.1,725.7 491.63,727.52 
			492.29,723.66 489.49,720.93 493.36,720.37 		"/>
		<polygon class="st5" points="510.58,716.85 512.31,720.37 516.19,720.93 513.38,723.66 514.05,727.52 510.58,725.7 507.11,727.52 
			507.77,723.66 504.97,720.93 508.84,720.37 		"/>
		<polygon class="st5" points="526.25,716.85 527.98,720.37 531.86,720.93 529.05,723.66 529.71,727.52 526.25,725.7 522.78,727.52 
			523.44,723.66 520.64,720.93 524.51,720.37 		"/>
		<polygon class="st5" points="540.71,716.85 542.45,720.37 546.32,720.93 543.52,723.66 544.18,727.52 540.71,725.7 537.25,727.52 
			537.91,723.66 535.1,720.93 538.98,720.37 		"/>
		<polygon class="st5" points="480.47,716.85 482.21,720.37 486.08,720.93 483.28,723.66 483.94,727.52 480.47,725.7 477.01,727.52 
			477.67,723.66 474.86,720.93 478.74,720.37 		"/>
	</g>
	<g>
		<polygon class="st5" points="495.14,733.14 496.88,736.65 500.75,737.21 497.95,739.95 498.61,743.81 495.14,741.98 
			491.67,743.81 492.34,739.95 489.53,737.21 493.41,736.65 		"/>
		<polygon class="st5" points="510.62,733.14 512.36,736.65 516.23,737.21 513.43,739.95 514.09,743.81 510.62,741.98 
			507.16,743.81 507.82,739.95 505.01,737.21 508.89,736.65 		"/>
		<polygon class="st5" points="526.29,733.14 528.02,736.65 531.9,737.21 529.1,739.95 529.76,743.81 526.29,741.98 522.82,743.81 
			523.49,739.95 520.68,737.21 524.56,736.65 		"/>
		<polygon class="st5" points="540.76,733.14 542.49,736.65 546.37,737.21 543.56,739.95 544.23,743.81 540.76,741.98 
			537.29,743.81 537.95,739.95 535.15,737.21 539.02,736.65 		"/>
		<polygon class="st5" points="480.52,733.14 482.25,736.65 486.13,737.21 483.32,739.95 483.98,743.81 480.52,741.98 
			477.05,743.81 477.71,739.95 474.91,737.21 478.78,736.65 		"/>
	</g>
	<g>
		<polygon class="st5" points="495.13,749.42 496.86,752.93 500.74,753.49 497.93,756.23 498.59,760.09 495.13,758.27 
			491.66,760.09 492.32,756.23 489.52,753.49 493.39,752.93 		"/>
		<polygon class="st5" points="510.61,749.42 512.34,752.93 516.22,753.49 513.41,756.23 514.08,760.09 510.61,758.27 
			507.14,760.09 507.8,756.23 505,753.49 508.87,752.93 		"/>
		<polygon class="st5" points="526.28,749.42 528.01,752.93 531.89,753.49 529.08,756.23 529.74,760.09 526.28,758.27 
			522.81,760.09 523.47,756.23 520.67,753.49 524.54,752.93 		"/>
		<polygon class="st5" points="540.74,749.42 542.48,752.93 546.35,753.49 543.55,756.23 544.21,760.09 540.74,758.27 
			537.28,760.09 537.94,756.23 535.13,753.49 539.01,752.93 		"/>
		<polygon class="st5" points="480.5,749.42 482.24,752.93 486.11,753.49 483.31,756.23 483.97,760.09 480.5,758.27 477.03,760.09 
			477.7,756.23 474.89,753.49 478.77,752.93 		"/>
	</g>
</g>
<circle class="st8" cx="409.04" cy="556.59" r="5.7"/>
<path class="st8" d="M510.06,561.52h-82.38c-2.71,0-4.94-2.22-4.94-4.94l0,0c0-2.71,2.22-4.94,4.94-4.94h82.38
	c2.71,0,4.94,2.22,4.94,4.94l0,0C515,559.3,512.78,561.52,510.06,561.52z"/>
<g>
	<circle class="st8" cx="410.06" cy="575.33" r="5.7"/>
	<circle class="st8" cx="410.06" cy="593.9" r="5.7"/>
	<circle class="st8" cx="410.06" cy="612.48" r="5.7"/>
	<path class="st8" d="M505.64,580.26H428.7c-2.71,0-4.94-2.22-4.94-4.94l0,0c0-2.71,2.22-4.94,4.94-4.94h76.94
		c2.71,0,4.94,2.22,4.94,4.94l0,0C510.57,578.04,508.35,580.26,505.64,580.26z"/>
	<path class="st8" d="M511.09,598.84H428.7c-2.71,0-4.94-2.22-4.94-4.94l0,0c0-2.71,2.22-4.94,4.94-4.94h82.38
		c2.71,0,4.94,2.22,4.94,4.94l0,0C516.02,596.62,513.8,598.84,511.09,598.84z"/>
	<path class="st8" d="M521.98,617.41H427c-2.71,0-4.94-2.22-4.94-4.94l0,0c0-2.71,2.22-4.94,4.94-4.94h94.98
		c2.71,0,4.94,2.22,4.94,4.94l0,0C526.91,615.19,524.69,617.41,521.98,617.41z"/>
</g>
<rect x="44.62" y="144.89" class="st9" width="297.19" height="197.28"/>
<rect x="49.54" y="663.83" class="st9" width="297.19" height="126.59"/>
<rect x="44.62" y="379.32" class="st9" width="297.19" height="242.51"/>
<text transform="matrix(0.8191 0 0 1 56.6172 169.7622)" class="st5 st6 st10">ABOUT ME</text>
<text transform="matrix(0.7819 0 0 1 56.6172 406.2939)" class="st5 st6 st11">WORK EXPERIENCE</text>
<text transform="matrix(0.8783 0 0 1 56.6172 688.6543)" class="st5 st6 st12">ACHIEVEMENTS</text>
<g>
	<g>
		<path class="st13" d="M42.22,40.5h6.55c3.35,0,5.66,1.82,5.66,5.01c0,3.24-2.28,5.14-5.84,5.14h-4.93v7.84h-1.44V40.5z
			 M43.66,49.37h5.06c2.96,0,4.19-1.54,4.19-3.8c0-2.42-1.62-3.78-4.09-3.78h-5.16V49.37z"/>
		<path class="st13" d="M69.03,49.65h-9.35v7.55h10.24l-0.21,1.28H58.26V40.5H69.5v1.29h-9.82v6.58h9.35V49.65z"/>
		<path class="st13" d="M77.28,41.79h-6.16V40.5h13.78v1.29h-6.18v16.7h-1.44V41.79z"/>
		<path class="st13" d="M98.4,49.65h-9.35v7.55h10.24l-0.21,1.28H87.63V40.5h11.24v1.29h-9.82v6.58h9.35V49.65z"/>
		<path class="st13" d="M104.35,50.09v8.4h-1.44V40.5h6.58c3.62,0,5.53,1.9,5.53,4.73c0,2.29-1.39,3.78-3.43,4.21
			c1.89,0.44,3.14,1.64,3.14,4.7v0.69c0,1.26-0.1,2.96,0.24,3.65h-1.44c-0.34-0.77-0.26-2.21-0.26-3.75v-0.46
			c0-2.96-0.89-4.19-4.4-4.19H104.35z M104.35,48.8h4.43c3.22,0,4.72-1.18,4.72-3.55c0-2.21-1.47-3.47-4.32-3.47h-4.82V48.8z"/>
		<path class="st13" d="M126.18,40.5h6.55c3.35,0,5.66,1.82,5.66,5.01c0,3.24-2.28,5.14-5.84,5.14h-4.93v7.84h-1.44V40.5z
			 M127.62,49.37h5.06c2.96,0,4.19-1.54,4.19-3.8c0-2.42-1.62-3.78-4.09-3.78h-5.16V49.37z"/>
		<path class="st13" d="M144.1,52.27l-2.33,6.22h-1.44l6.73-17.99h1.68l7.02,17.99h-1.55l-2.38-6.22H144.1z M151.36,50.99
			c-2.04-5.34-3.09-7.91-3.46-9.12h-0.03c-0.45,1.36-1.62,4.55-3.27,9.12H151.36z"/>
		<path class="st13" d="M160.45,50.09v8.4h-1.44V40.5h6.58c3.62,0,5.53,1.9,5.53,4.73c0,2.29-1.39,3.78-3.43,4.21
			c1.89,0.44,3.14,1.64,3.14,4.7v0.69c0,1.26-0.1,2.96,0.24,3.65h-1.44c-0.34-0.77-0.26-2.21-0.26-3.75v-0.46
			c0-2.96-0.89-4.19-4.4-4.19H160.45z M160.45,48.8h4.43c3.22,0,4.72-1.18,4.72-3.55c0-2.21-1.47-3.47-4.32-3.47h-4.82V48.8z"/>
		<path class="st13" d="M175.47,40.5h1.42v9.35c1.47-1.39,6.71-6.22,9.98-9.35h1.89l-8.23,7.66l8.7,10.33h-1.76l-7.96-9.43
			l-2.62,2.26v7.17h-1.42V40.5z"/>
		<path class="st13" d="M202.33,49.65h-9.35v7.55h10.24l-0.21,1.28h-11.45V40.5h11.24v1.29h-9.82v6.58h9.35V49.65z"/>
		<path class="st13" d="M208.28,50.09v8.4h-1.44V40.5h6.58c3.62,0,5.53,1.9,5.53,4.73c0,2.29-1.39,3.78-3.43,4.21
			c1.89,0.44,3.14,1.64,3.14,4.7v0.69c0,1.26-0.1,2.96,0.24,3.65h-1.44c-0.34-0.77-0.26-2.21-0.26-3.75v-0.46
			c0-2.96-0.89-4.19-4.4-4.19H208.28z M208.28,48.8h4.43c3.22,0,4.72-1.18,4.72-3.55c0-2.21-1.47-3.47-4.32-3.47h-4.82V48.8z"/>
	</g>
</g>
<g>
	<g>
		<path class="st14" d="M45.61,76.67v-3.15c0-0.07-0.02-0.16-0.05-0.19l-3-5.05h0.76c0.84,1.43,2.3,3.91,2.66,4.53
			c0.36-0.62,1.83-3.08,2.73-4.53h0.72l-3.13,5.1c-0.02,0.05-0.04,0.1-0.04,0.18v3.12H45.61z"/>
		<path class="st14" d="M55.27,73.66c0,1.67-0.92,3.15-2.71,3.15c-1.62,0-2.63-1.33-2.63-3.14c0-1.71,0.95-3.14,2.69-3.14
			C54.21,70.53,55.27,71.78,55.27,73.66z M50.57,73.68c0,1.43,0.77,2.58,2.04,2.58c1.3,0,2.03-1.07,2.03-2.58
			c0-1.42-0.72-2.58-2.05-2.58C51.21,71.1,50.57,72.24,50.57,73.68z"/>
		<path class="st14" d="M61.24,74.92c0,0.59,0.01,1.52,0.01,1.75h-0.58c-0.02-0.16-0.04-0.55-0.04-1.04
			c-0.25,0.71-0.86,1.19-1.93,1.19c-0.86,0-1.97-0.34-1.97-2.17v-3.97h0.59v3.83c0,0.88,0.28,1.73,1.46,1.73
			c1.34,0,1.85-0.76,1.85-2.47v-3.08h0.6V74.92z"/>
		<path class="st14" d="M63.21,72.31c0-1.01-0.01-1.44-0.01-1.63h0.59c0.01,0.19,0.02,0.58,0.02,1.34c0.35-0.9,1.12-1.44,2.09-1.49
			v0.65c-1.25,0.08-2.09,0.95-2.09,2.38v3.12h-0.6V72.31z"/>
		<path class="st14" d="M70.38,76.67v-5.43h-1.03v-0.56h1.03v-0.85c0-1.01,0.29-2.11,1.63-2.11c0.18,0,0.44,0.04,0.59,0.08v0.58
			c-0.18-0.05-0.47-0.07-0.65-0.07c-0.71,0-0.97,0.5-0.97,1.55v0.83h1.31v0.56h-1.31v5.43H70.38z"/>
		<path class="st14" d="M73.23,72.31c0-1.01-0.01-1.44-0.01-1.63h0.59c0.01,0.19,0.02,0.58,0.02,1.34c0.35-0.9,1.12-1.44,2.09-1.49
			v0.65c-1.25,0.08-2.09,0.95-2.09,2.38v3.12h-0.6V72.31z"/>
		<path class="st14" d="M77.12,67.83h0.6V69h-0.6V67.83z M77.12,70.68h0.6v6h-0.6V70.68z"/>
		<path class="st14" d="M79.69,72.19c0-0.53,0-1.03-0.01-1.51h0.59c0.02,0.19,0.04,0.97,0.02,1.14c0.26-0.61,0.76-1.28,1.99-1.28
			c1.07,0,2.01,0.6,2.01,2.25v3.89h-0.6v-3.79c0-1.07-0.44-1.76-1.49-1.76c-1.43,0-1.92,1.19-1.92,2.49v3.06h-0.6V72.19z"/>
		<path class="st14" d="M90.89,67.83v7.11c0,0.58,0,1.13,0.01,1.73h-0.58c-0.02-0.14-0.04-0.71-0.04-1.01
			c-0.3,0.73-0.97,1.15-2.01,1.15c-1.56,0-2.49-1.27-2.49-3.07c0-1.85,1.02-3.21,2.65-3.21c1.2,0,1.68,0.52,1.86,0.9v-3.6H90.89z
			 M86.42,73.72c0,1.64,0.85,2.53,1.88,2.53c1.58,0,2.01-1.09,2.01-2.72c0-1.55-0.37-2.44-1.91-2.44
			C87.22,71.1,86.42,72.04,86.42,73.72z"/>
		<path class="st14" d="M92.86,76.67v-8.84h0.6v8.84H92.86z"/>
		<path class="st14" d="M95.28,70.68c1.21,3.43,1.74,4.85,1.94,5.49h0.01c0.24-0.73,0.72-2.12,1.88-5.49h0.62l-2.25,6.34
			c-0.64,1.78-1.07,2.17-2.15,2.17c-0.22,0-0.36-0.01-0.55-0.04v-0.6c0.18,0.02,0.35,0.04,0.54,0.04c0.86,0,1.14-0.42,1.58-1.66
			l-2.29-6.26H95.28z"/>
		<path class="st14" d="M104.01,72.19c0-0.53,0-1.03-0.01-1.51h0.59c0.02,0.19,0.04,0.97,0.02,1.14c0.26-0.61,0.76-1.28,1.99-1.28
			c1.07,0,2.01,0.6,2.01,2.25v3.89h-0.6v-3.79c0-1.07-0.44-1.76-1.49-1.76c-1.43,0-1.92,1.19-1.92,2.49v3.06h-0.6V72.19z"/>
		<path class="st14" d="M110.72,73.75c0.01,1.55,0.79,2.51,1.94,2.51c1.13,0,1.51-0.64,1.73-1.13H115
			c-0.25,0.79-0.89,1.69-2.36,1.69c-1.82,0-2.53-1.57-2.53-3.09c0-1.72,0.85-3.19,2.6-3.19c1.85,0,2.43,1.6,2.43,2.72
			c0,0.17,0,0.34-0.01,0.49H110.72z M114.52,73.22c-0.01-1.19-0.66-2.12-1.83-2.12c-1.24,0-1.8,0.86-1.93,2.12H114.52z"/>
		<path class="st14" d="M116.61,67.83h0.6V69h-0.6V67.83z M116.61,70.68h0.6v6h-0.6V70.68z"/>
		<path class="st14" d="M123.76,76.27c0,1.92-0.85,2.93-2.59,2.93c-1.56,0-2.21-0.88-2.35-1.79h0.61c0.22,0.83,0.9,1.22,1.76,1.22
			c1.56,0,1.99-1.01,1.99-2.53v-0.62c-0.32,0.78-0.91,1.2-2,1.2c-1.4,0-2.48-1.14-2.48-3c0-2.01,1.15-3.14,2.57-3.14
			c1.22,0,1.75,0.58,1.92,1.06c0.01-0.35,0.02-0.77,0.04-0.91h0.56c0,0.22-0.02,1.16-0.02,1.74V76.27z M119.34,73.65
			c0,1.43,0.76,2.46,1.91,2.46c1.5,0,1.96-1,1.96-2.55c0-1.58-0.48-2.46-1.92-2.46C119.9,71.1,119.34,72.28,119.34,73.65z"/>
		<path class="st14" d="M126.33,67.83v3.85c0.34-0.62,0.92-1.15,1.98-1.15c0.85,0,2.03,0.43,2.03,2.33v3.81h-0.6v-3.69
			c0-1.19-0.54-1.86-1.54-1.86c-1.19,0-1.87,0.73-1.87,2.21v3.35h-0.6v-8.84H126.33z"/>
		<path class="st14" d="M132.31,67.83h0.6v3.85c0.29-0.6,0.88-1.15,2.05-1.15c1.42,0,2.46,1.16,2.46,3.01c0,1.9-0.94,3.27-2.61,3.27
			c-1.01,0-1.58-0.41-1.9-1.09c0,0.38-0.01,0.78-0.02,0.95h-0.59c0.01-0.68,0.01-1.37,0.01-2.05V67.83z M136.78,73.56
			c0-1.5-0.74-2.46-1.88-2.46c-1.5,0-2.03,1.02-2.03,2.59c0,1.42,0.47,2.57,1.95,2.57C136.04,76.25,136.78,75.25,136.78,73.56z"/>
		<path class="st14" d="M143.77,73.66c0,1.67-0.92,3.15-2.71,3.15c-1.62,0-2.63-1.33-2.63-3.14c0-1.71,0.95-3.14,2.69-3.14
			C142.71,70.53,143.77,71.78,143.77,73.66z M139.06,73.68c0,1.43,0.77,2.58,2.04,2.58c1.3,0,2.03-1.07,2.03-2.58
			c0-1.42-0.72-2.58-2.05-2.58C139.71,71.1,139.06,72.24,139.06,73.68z"/>
		<path class="st14" d="M149.74,74.92c0,0.59,0.01,1.52,0.01,1.75h-0.58c-0.02-0.16-0.04-0.55-0.04-1.04
			c-0.25,0.71-0.86,1.19-1.93,1.19c-0.86,0-1.97-0.34-1.97-2.17v-3.97h0.59v3.83c0,0.88,0.28,1.73,1.46,1.73
			c1.34,0,1.85-0.76,1.85-2.47v-3.08h0.6V74.92z"/>
		<path class="st14" d="M151.71,72.31c0-1.01-0.01-1.44-0.01-1.63h0.59c0.01,0.19,0.02,0.58,0.02,1.34c0.35-0.9,1.12-1.44,2.09-1.49
			v0.65c-1.25,0.08-2.09,0.95-2.09,2.38v3.12h-0.6V72.31z"/>
		<path class="st14" d="M156.2,67.83v3.85c0.34-0.62,0.92-1.15,1.98-1.15c0.85,0,2.03,0.43,2.03,2.33v3.81h-0.6v-3.69
			c0-1.19-0.54-1.86-1.54-1.86c-1.19,0-1.87,0.73-1.87,2.21v3.35h-0.6v-8.84H156.2z"/>
		<path class="st14" d="M167.03,73.66c0,1.67-0.92,3.15-2.71,3.15c-1.62,0-2.63-1.33-2.63-3.14c0-1.71,0.95-3.14,2.69-3.14
			C165.98,70.53,167.03,71.78,167.03,73.66z M162.33,73.68c0,1.43,0.77,2.58,2.04,2.58c1.3,0,2.03-1.07,2.03-2.58
			c0-1.42-0.72-2.58-2.05-2.58C162.98,71.1,162.33,72.24,162.33,73.68z"/>
		<path class="st14" d="M173.38,73.66c0,1.67-0.92,3.15-2.71,3.15c-1.62,0-2.63-1.33-2.63-3.14c0-1.71,0.95-3.14,2.69-3.14
			C172.32,70.53,173.38,71.78,173.38,73.66z M168.68,73.68c0,1.43,0.77,2.58,2.04,2.58c1.3,0,2.03-1.07,2.03-2.58
			c0-1.42-0.72-2.58-2.05-2.58C169.33,71.1,168.68,72.24,168.68,73.68z"/>
		<path class="st14" d="M179.5,67.83v7.11c0,0.58,0,1.13,0.01,1.73h-0.58c-0.02-0.14-0.04-0.71-0.04-1.01
			c-0.3,0.73-0.97,1.15-2.01,1.15c-1.56,0-2.49-1.27-2.49-3.07c0-1.85,1.02-3.21,2.65-3.21c1.2,0,1.68,0.52,1.86,0.9v-3.6H179.5z
			 M175.03,73.72c0,1.64,0.85,2.53,1.88,2.53c1.58,0,2.01-1.09,2.01-2.72c0-1.55-0.37-2.44-1.91-2.44
			C175.83,71.1,175.03,72.04,175.03,73.72z"/>
		<path class="st14" d="M184.84,74.42c0.25,1.12,1,1.77,2.37,1.77c1.54,0,2.12-0.77,2.12-1.68c0-0.95-0.42-1.54-2.27-1.99
			c-1.78-0.44-2.54-1.02-2.54-2.23c0-1.1,0.8-2.13,2.6-2.13c1.85,0,2.63,1.13,2.73,2.15h-0.67c-0.19-0.9-0.78-1.55-2.1-1.55
			c-1.21,0-1.87,0.56-1.87,1.5c0,0.92,0.55,1.28,2.1,1.67c2.36,0.59,2.71,1.54,2.71,2.54c0,1.23-0.9,2.3-2.84,2.3
			c-2.1,0-2.87-1.22-3.02-2.35H184.84z"/>
		<path class="st14" d="M192.23,75.79v3.29h-0.6v-6.92c0-0.49,0-1.02-0.01-1.48h0.59c0.02,0.23,0.02,0.59,0.02,1.08
			c0.37-0.72,1.03-1.22,2.11-1.22c1.42,0,2.4,1.19,2.4,2.99c0,2.16-1.15,3.3-2.6,3.3C193.09,76.82,192.53,76.35,192.23,75.79z
			 M196.11,73.54c0-1.39-0.67-2.43-1.86-2.43c-1.45,0-2.05,0.91-2.05,2.54c0,1.61,0.47,2.6,1.97,2.6
			C195.41,76.25,196.11,75.2,196.11,73.54z"/>
		<path class="st14" d="M198.25,67.83h0.6V69h-0.6V67.83z M198.25,70.68h0.6v6h-0.6V70.68z"/>
		<path class="st14" d="M205.44,67.83v7.11c0,0.58,0,1.13,0.01,1.73h-0.58c-0.02-0.14-0.04-0.71-0.04-1.01
			c-0.3,0.73-0.97,1.15-2.01,1.15c-1.56,0-2.49-1.27-2.49-3.07c0-1.85,1.02-3.21,2.65-3.21c1.2,0,1.68,0.52,1.86,0.9v-3.6H205.44z
			 M200.97,73.72c0,1.64,0.85,2.53,1.88,2.53c1.58,0,2.01-1.09,2.01-2.72c0-1.55-0.37-2.44-1.91-2.44
			C201.77,71.1,200.97,72.04,200.97,73.72z"/>
		<path class="st14" d="M207.55,73.75c0.01,1.55,0.79,2.51,1.94,2.51c1.13,0,1.51-0.64,1.73-1.13h0.61
			c-0.25,0.79-0.89,1.69-2.36,1.69c-1.82,0-2.53-1.57-2.53-3.09c0-1.72,0.85-3.19,2.6-3.19c1.85,0,2.43,1.6,2.43,2.72
			c0,0.17,0,0.34-0.01,0.49H207.55z M211.35,73.22c-0.01-1.19-0.66-2.12-1.83-2.12c-1.24,0-1.8,0.86-1.93,2.12H211.35z"/>
		<path class="st14" d="M213.44,72.31c0-1.01-0.01-1.44-0.01-1.63h0.59c0.01,0.19,0.02,0.58,0.02,1.34c0.35-0.9,1.12-1.44,2.09-1.49
			v0.65c-1.25,0.08-2.09,0.95-2.09,2.38v3.12h-0.6V72.31z"/>
		<path class="st14" d="M227.91,72.81c0-1.64,0.01-3.21,0.05-4.05h-0.04c-0.34,1.13-2.04,5.27-3.11,7.92h-0.64
			c-0.8-2.05-2.57-6.66-2.95-7.93h-0.02c0.06,0.96,0.08,2.91,0.08,4.35v3.57h-0.65v-8.4h0.97c1.15,2.88,2.6,6.64,2.91,7.59h0.02
			c0.19-0.61,1.87-4.8,3.05-7.59h0.96v8.4h-0.65V72.81z"/>
		<path class="st14" d="M234.83,75.54c0,0.53,0.05,0.95,0.08,1.14h-0.58c-0.05-0.14-0.08-0.41-0.11-0.92
			c-0.2,0.44-0.73,1.07-1.97,1.07c-1.39,0-1.99-0.9-1.99-1.8c0-1.32,1.02-1.92,2.82-1.92c0.5,0,0.9,0,1.14,0v-0.61
			c0-0.6-0.18-1.4-1.55-1.4c-1.21,0-1.39,0.64-1.52,1.13h-0.6c0.07-0.66,0.48-1.68,2.13-1.68c1.37,0,2.13,0.58,2.13,1.9V75.54z
			 M234.24,73.62c-0.23,0-0.78,0-1.18,0c-1.33,0-2.16,0.35-2.16,1.38c0,0.76,0.54,1.27,1.38,1.27c1.71,0,1.96-1.14,1.96-2.43V73.62z
			"/>
		<path class="st14" d="M236.81,72.19c0-0.53,0-1.03-0.01-1.51h0.59c0.02,0.19,0.04,0.97,0.02,1.14c0.26-0.61,0.76-1.28,1.99-1.28
			c1.07,0,2.01,0.6,2.01,2.25v3.89h-0.6v-3.79c0-1.07-0.44-1.76-1.49-1.76c-1.43,0-1.92,1.19-1.92,2.49v3.06h-0.6V72.19z"/>
	</g>
</g>
<circle class="st15" cx="509.89" cy="76.67" r="35.11"/>
</svg>
